<?xml version="1.0" encoding="UTF-8" standalone="no"?>
<!-- Created with Inkscape (http://www.inkscape.org/) -->

<svg
   xmlns:dc="http://purl.org/dc/elements/1.1/"
   xmlns:cc="http://creativecommons.org/ns#"
   xmlns:rdf="http://www.w3.org/1999/02/22-rdf-syntax-ns#"
   xmlns:svg="http://www.w3.org/2000/svg"
   xmlns="http://www.w3.org/2000/svg"
   xmlns:sodipodi="http://sodipodi.sourceforge.net/DTD/sodipodi-0.dtd"
   xmlns:inkscape="http://www.inkscape.org/namespaces/inkscape"
   width="512"
   height="322"
   id="svg2"
   version="1.1"
   inkscape:version="0.48.3.1 r9886"
   sodipodi:docname="drawing2.svg"
   inkscape:export-filename="/home/joewandy/Project/scopy/assets/drawing3.png"
   inkscape:export-xdpi="90"
   inkscape:export-ydpi="90">
  <defs
     id="defs4" />
  <sodipodi:namedview
     id="base"
     pagecolor="#ffffff"
     bordercolor="#666666"
     borderopacity="1.0"
     inkscape:pageopacity="0.0"
     inkscape:pageshadow="2"
     inkscape:zoom="1.0827573"
     inkscape:cx="301.48565"
     inkscape:cy="167.14286"
     inkscape:document-units="px"
     inkscape:current-layer="layer1"
     showgrid="false"
     inkscape:window-width="1301"
     inkscape:window-height="744"
     inkscape:window-x="65"
     inkscape:window-y="24"
     inkscape:window-maximized="1" />
  <metadata
     id="metadata7">
    <rdf:RDF>
      <cc:Work
         rdf:about="">
        <dc:format>image/svg+xml</dc:format>
        <dc:type
           rdf:resource="http://purl.org/dc/dcmitype/StillImage" />
        <dc:title></dc:title>
      </cc:Work>
    </rdf:RDF>
  </metadata>
  <g
     inkscape:label="Layer 1"
     inkscape:groupmode="layer"
     id="layer1"
     transform="translate(0,-730.36218)">
    <text
       xml:space="preserve"
       style="font-size:40px;font-style:normal;font-weight:normal;line-height:125%;letter-spacing:0px;word-spacing:0px;fill:#000000;fill-opacity:1;stroke:none;font-family:Sans"
       x="220"
       y="42"
       id="text3763"
       sodipodi:linespacing="125%"
       transform="translate(0,730.36218)"><tspan
         sodipodi:role="line"
         id="tspan3765"
         x="220"
         y="42"
         style="font-style:normal;font-variant:normal;font-weight:bold;font-stretch:normal;font-family:Arial;-inkscape-font-specification:Arial Bold" /></text>
    <path
       style="opacity:0.18930042;fill:none;stroke:#000000;stroke-width:3.0999999;stroke-linecap:butt;stroke-linejoin:round;stroke-miterlimit:4;stroke-opacity:1;stroke-dasharray:none"
       d="m 25,757.36218 c 0,2.66667 0,5.33333 0,8 0,0.66667 0,1.33333 0,2 0,0.33333 -0.149071,0.70186 0,1 0.210819,0.42164 0.789181,0.57836 1,1 0.149071,0.29814 -0.149071,0.70186 0,1 0.210819,0.42164 0.666667,0.66667 1,1 0.333333,0.33333 0.578363,0.78918 1,1 0.298142,0.14907 0.764298,-0.2357 1,0 0.235702,0.2357 -0.235702,0.7643 0,1 0.471405,0.47141 1.528595,-0.4714 2,0 0.235702,0.2357 -0.235702,0.7643 0,1 0.235702,0.2357 0.666667,0 1,0 0.666667,0 1.333333,0 2,0 3,0 6,0 9,0 0.534213,0 4.713797,0.1431 5,0 4.576607,-2.2883 -4.243416,0.41447 3,-2 0.316228,-0.10541 0.701858,0.14907 1,0 0.421637,-0.21082 0.666667,-0.66667 1,-1 0.781086,-0.78109 2.1371,-2.42473 3,-3 0.620174,-0.41345 1.472954,-0.47295 2,-1 0.121218,-0.12122 -0.102641,-1.58944 0,-2 0.255655,-1.02262 0.744345,-1.97738 1,-3 0.08084,-0.32338 -0.235702,-0.7643 0,-1 0.958333,-0.95833 2.416667,2.25 1,-2 -0.636864,-1.91059 -3.925771,-0.64192 -5,-1 -0.316228,-0.10541 0.235702,-0.7643 0,-1 -0.235702,-0.2357 -0.666667,0 -1,0 -0.333333,0 -0.666667,0 -1,0 -0.450358,0 -2.695666,-0.15217 -3,0 -0.421637,0.21082 -0.578363,0.78918 -1,1 -0.298142,0.14907 -0.764298,-0.2357 -1,0 -0.235702,0.2357 0.235702,0.7643 0,1 -2.069036,2.06904 0.08088,-3.16176 -2,1 -0.149071,0.29814 0,0.66667 0,1 0,4.85092 -0.381123,2.74592 3,5 2.288304,1.52554 -0.625291,0.79157 3,2 0.316228,0.10541 0.764298,-0.2357 1,0 1.088099,1.0881 -1.774507,1.30637 1,2 0.970143,0.24254 2.051317,-0.31623 3,0 0.316228,0.10541 -0.298142,0.85093 0,1 0.8,0.4 2.2,-0.4 3,0 0.421637,0.21082 0.578363,0.78918 1,1 0.148666,0.0743 3.780419,0.0732 4,0 0.73079,-0.2436 2.542339,-1.08468 3,-2 0.149071,-0.29814 -0.149071,-0.70186 0,-1 0.421637,-0.84327 1.578363,-1.15673 2,-2 0.149071,-0.29814 -0.149071,-0.70186 0,-1 0.210819,-0.42164 0.789181,-0.57836 1,-1 0.298142,-0.59628 -0.471405,-1.52859 0,-2 0.235702,-0.2357 0.764298,0.2357 1,0 0.235702,-0.2357 -0.235702,-0.7643 0,-1 0.235702,-0.2357 0.764298,0.2357 1,0 0.235702,-0.2357 -0.149071,-0.70186 0,-1 0.210819,-0.42164 0.666667,-0.66667 1,-1 0.333333,-0.33333 0.578363,-0.78918 1,-1 0.298142,-0.14907 0.701858,0.14907 1,0 0.421637,-0.21082 0.578363,-0.78918 1,-1 0.596285,-0.29814 1.528595,0.47141 2,0 0.235702,-0.2357 -0.27735,-0.8151 0,-1 0.877058,-0.5847 2.0213,-0.60852 3,-1 0.692046,-0.27682 1.292893,-0.7643 2,-1 1.5,-0.5 1,1 3,0 0.298142,-0.14907 -0.235702,-0.7643 0,-1 0.268363,-0.26836 3.295714,0.23476 4,0 0.707107,-0.2357 1.292893,-0.7643 2,-1 0.316228,-0.10541 0.666667,0 1,0 0.666667,0 1.333333,0 2,0 0.333333,0 0.764298,-0.2357 1,0 0.235702,0.2357 -0.235702,0.7643 0,1 0.471405,0.47141 1.528595,-0.4714 2,0 0.235702,0.2357 -0.149071,0.70186 0,1 0.210819,0.42164 0.789181,0.57836 1,1 0.29814,0.59629 -0.471405,1.5286 0,2 0.2357,0.2357 0.7643,-0.2357 1,0 0.2357,0.2357 -0.14907,0.70186 0,1 0.21082,0.42164 0.78918,0.57836 1,1 0.14907,0.29814 0,0.66667 0,1 0,0.33333 0,0.66667 0,1 0,2 0,4 0,6 0,0.33333 0.2357,0.7643 0,1 -0.2357,0.2357 -0.7643,-0.2357 -1,0 -0.2357,0.2357 0.31623,1.10541 0,1 -10.756297,-3.58543 0.73826,-0.63087 -4,-3 -0.298142,-0.14907 -0.850929,0.29814 -1,0 -0.117576,-0.23515 0,-3.34308 0,-4 0,-0.33333 0,-0.66667 0,-1 0,-0.33333 -0.235702,-0.7643 0,-1 0.235702,-0.2357 0.764298,0.2357 1,0 0.235702,-0.2357 -0.149071,-0.70186 0,-1 0.210819,-0.42164 0.789181,-0.57836 1,-1 0.149071,-0.29814 -0.235702,-0.7643 0,-1 0.235702,-0.2357 0.764298,0.2357 1,0 0.235702,-0.2357 -0.149071,-0.70186 0,-1 0.210819,-0.42164 0.789181,-0.57836 1,-1 0.14907,-0.29814 -0.149071,-0.70186 0,-1 0.21082,-0.42164 0.78918,-0.57836 1,-1 0.14907,-0.29814 -0.2357,-0.7643 0,-1 0.2357,-0.2357 0.7643,0.2357 1,0 0.2357,-0.2357 -0.2357,-0.7643 0,-1 0.2357,-0.2357 0.66667,0 1,0 0.33333,0 0.66667,0 1,0 9.9665,0 1.11438,-0.94281 5,1 2.46295,1.23148 -0.90273,-2.90273 3,1 0.2357,0.2357 -0.2357,0.7643 0,1 0.2357,0.2357 0.66667,0 1,0 1,0 2.02986,-0.24254 3,0 0.45733,0.11433 0.55279,0.85093 1,1 0.63246,0.21082 1.36754,-0.21082 2,0 0.44721,0.14907 0.55279,0.85093 1,1 0.63246,0.21082 1.36754,-0.21082 2,0 0.44721,0.14907 0.55279,0.85093 1,1 1.26491,0.42164 2.73509,-0.42164 4,0 0.44721,0.14907 0.55279,0.85093 1,1 0.72365,0.24122 3.67036,-0.32964 4,0 0.2357,0.2357 -0.2357,0.7643 0,1 0.20444,0.20444 2.60351,-0.19825 3,0 0.42164,0.21082 0.57836,0.78918 1,1 0.36614,0.18307 6.59972,0 8,0 0.33333,0 0.66667,0 1,0 0.33333,0 0.7643,-0.2357 1,0 0.2357,0.2357 -0.2357,0.7643 0,1 0.2357,0.2357 0.66667,0 1,0 1.66667,0 3.33333,0 5,0 1,0 2.05132,0.31623 3,0 0.44721,-0.14907 0.55279,-0.85093 1,-1 0.63246,-0.21082 1.4453,0.3698 2,0 0.62017,-0.41345 0.47295,-1.47295 1,-2 0.52705,-0.52705 1.37983,-0.58655 2,-1 0.78446,-0.52298 1.21554,-1.47702 2,-2 0.62017,-0.41345 1.47295,-0.47295 2,-1 0.2357,-0.2357 -0.31623,-0.89459 0,-1 0.94868,-0.31623 2.05132,0.31623 3,0 0.31623,-0.10541 -0.29814,-0.85093 0,-1 0.59628,-0.29814 1.36754,0.21082 2,0 0.44721,-0.14907 0.66667,-0.66667 1,-1 0.33333,-0.33333 0.78918,-0.57836 1,-1 0.14907,-0.29814 -0.2357,-0.7643 0,-1 0.2357,-0.2357 1,0.33333 1,0 0,-1.37437 -2.62563,-1 -4,-1 -1,0 -2,0 -3,0 -0.73408,0 -5.65137,-0.17431 -6,0 -0.42164,0.21082 -0.57836,0.78918 -1,1 -0.29814,0.14907 -0.70186,-0.14907 -1,0 -0.42164,0.21082 -0.57836,0.78918 -1,1 -0.59628,0.29814 -1.5286,-0.4714 -2,0 -2.06904,2.06904 3.16176,-0.0809 -1,2 -0.29814,0.14907 -0.7643,-0.2357 -1,0 -0.0803,0.0803 0,4.21289 0,5 0,0.33333 0,0.66667 0,1 0,1.33333 0,2.66667 0,4 0,0.33333 -0.29814,0.85093 0,1 0.59628,0.29814 1.36754,-0.21082 2,0 0.44721,0.14907 0.55279,0.85093 1,1 0.94868,0.31623 2.05132,-0.31623 3,0 0.70711,0.2357 1.2769,0.81923 2,1 0.64676,0.16169 1.33333,0 2,0 1,0 2,0 3,0 0.66667,0 1.34628,-0.13074 2,0 1.03362,0.20673 1.96025,0.82671 3,1 1.64399,0.274 3.33333,0 5,0 2,0 4,0 6,0 0.66667,0 1.36754,0.21082 2,0 0.44721,-0.14907 0.57836,-0.78918 1,-1 0.94281,-0.4714 2.12294,-0.41529 3,-1 0.27735,-0.1849 -0.10541,-0.68377 0,-1 0.2357,-0.70711 0.47295,-1.47295 1,-2 0.52705,-0.52705 1.47295,-0.47295 2,-1 0.2357,-0.2357 -0.1849,-0.72265 0,-1 0.52298,-0.78446 1.43431,-1.24575 2,-2 0.44721,-0.59628 0.47295,-1.47295 1,-2 2.5259,-2.5259 1.15279,-0.38426 3,-1 0.70711,-0.2357 1.37983,-0.58655 2,-1 0.39223,-0.26149 0.55279,-0.85093 1,-1 0.63246,-0.21082 1.36754,0.21082 2,0 0.44721,-0.14907 0.55279,-0.85093 1,-1 1.36539,-0.45513 4.63461,0.45513 6,0 0.31623,-0.10541 -0.29814,-0.85093 0,-1 0.37618,-0.18809 5.85443,0.0364 6,0 4.94281,-1.2357 -2.09272,-1 2,-1 0.66667,0 1.33333,0 2,0 0.33333,0 0.7643,-0.2357 1,0 0.2357,0.2357 -0.14907,0.70186 0,1 2.08088,4.16176 -0.069,-1.06904 2,1 0.4714,0.47141 -0.29814,1.40372 0,2 0.21082,0.42164 0.78918,0.57836 1,1 0.14907,0.29814 0,0.66667 0,1 0,0.33333 0,0.66667 0,1 0,1.33333 0,2.66667 0,4 0,0.36724 0.0402,3.95976 0,4 -0.2357,0.2357 -0.66667,0 -1,0 -1,0 -2,0 -3,0 -0.55816,0 -4.54224,0.15259 -5,0 -0.44721,-0.14907 -0.85093,-0.55279 -1,-1 -0.0702,-0.21044 -0.13003,-4.47989 0,-5 1.07308,-4.29232 0.17218,-2.11479 3,-4 1.98106,0.0998 0.47295,-1.47295 1,-2 0.2357,-0.2357 0.70186,0.14907 1,0 0.42164,-0.21082 0.57836,-0.78918 1,-1 0.59628,-0.29814 1.5286,0.47141 2,0 0.2357,-0.2357 -0.2357,-0.7643 0,-1 0.2357,-0.2357 0.70186,0.14907 1,0 0.42164,-0.21082 0.57836,-0.78918 1,-1 0.29814,-0.14907 0.67662,0.0808 1,0 1.02262,-0.25565 2.05719,-0.52859 3,-1 0.42164,-0.21082 0.57836,-0.78918 1,-1 0.29814,-0.14907 0.70186,0.14907 1,0 0.42164,-0.21082 0.55279,-0.85093 1,-1 0.63246,-0.21082 1.33333,0 2,0 0.66667,0 1.33333,0 2,0 1,0 2.01942,-0.19612 3,0 0.73088,0.14618 1.30795,0.72318 2,1 9.18744,3.67497 -0.31246,-0.87497 4,2 0.62017,0.41345 1.40372,0.55279 2,1 0.75425,0.56569 1.33333,1.33333 2,2 0.33333,0.33333 0.57836,0.78918 1,1 0.94281,0.47141 2.25464,0.25464 3,1 0.4714,0.47141 -0.4714,1.5286 0,2 0.4714,0.47141 1.35324,-0.16169 2,0 0.7231,0.18078 1.33333,0.66667 2,1 1,0 2.01942,-0.19612 3,0 0.73088,0.14618 1.26912,0.85382 2,1 0.98058,0.19612 2.01361,-0.1644 3,0 1.03975,0.17329 1.9565,0.85093 3,1 1.31993,0.18856 2.70648,-0.32338 4,0 0.32338,0.0808 -0.29814,0.85093 0,1 2,1 1.5,-0.5 3,0 0.70711,0.2357 1.26912,0.85382 2,1 1.31268,0.26254 4.41011,0 6,0 0.66667,0 1.33333,0 2,0 0.33333,0 0.67662,0.0808 1,0 2.04524,-0.51131 3.95476,-1.48869 6,-2 2,-0.5 0,1 3,0 0.44721,-0.14907 0.57836,-0.78918 1,-1 0.94281,-0.4714 2.12294,-0.41529 3,-1 0.27735,-0.1849 -0.14907,-0.70186 0,-1 0.76579,-1.53158 1.78202,-0.78202 3,-2 0.2357,-0.2357 -0.14907,-0.70186 0,-1 0.21082,-0.42164 0.78918,-0.57836 1,-1 0.14907,-0.29814 -0.2357,-0.7643 0,-1 0.2357,-0.2357 1.31623,0.10541 1,0 -2.30217,-0.76739 -4.63108,-1.47357 -7,-2 -0.65079,-0.14462 -1.36754,0.21082 -2,0 -0.44721,-0.14907 -0.55279,-0.85093 -1,-1 -0.0657,-0.0219 -4.93433,-0.0219 -5,0 -0.44721,0.14907 -0.57836,0.78918 -1,1 -0.59628,0.29814 -1.40372,-0.29814 -2,0 -0.42164,0.21082 -0.60777,0.73851 -1,1 -0.62017,0.41345 -1.37983,0.58655 -2,1 -1.98106,-0.0998 -0.47295,1.47295 -1,2 -0.2357,0.2357 -0.7643,-0.2357 -1,0 -0.4714,0.47141 0.4714,1.5286 0,2 -0.2357,0.2357 -0.85093,-0.29814 -1,0 -0.44721,0.89443 0,2 0,3 0,0.45036 -0.15217,2.69567 0,3 1.10553,2.21106 0.62064,0.31032 2,1 3.04956,1.52478 -1.82894,0.79276 3,2 4,1 0.5,-0.5 3,0 3.13914,0.62783 4.14072,1.04691 7,2 10.35877,3.45292 -4.13523,-1.02705 6,1 0.73088,0.14618 1.29289,0.7643 2,1 1.5,0.5 1,-1 3,0 0.29814,0.14907 -0.31623,0.89459 0,1 0.94868,0.31623 2.03848,-0.27472 3,0 1.43336,0.40953 2.58579,1.5286 4,2 0.57299,0.191 4.06118,0 5,0 1.38388,0 6.96557,0.25861 8,0 8.32352,-2.08088 -1.20711,0.069 5,-2 0.31623,-0.10541 0.66667,0 1,0 0.66667,-0.33333 1.33333,-0.66667 2,-1 0.66667,-0.33333 1.37983,-0.58655 2,-1 0.39223,-0.26149 0.55279,-0.85093 1,-1 0.63246,-0.21082 1.36754,0.21082 2,0 0.44721,-0.14907 0.55279,-0.85093 1,-1 0.63246,-0.21082 1.5286,0.47141 2,0 2.86193,-2.86193 -2.49509,-1.25245 1,-3 0.52042,-2.33868 2.83002,-0.61001 4,-1 7.24342,-2.41447 -1.57661,0.2883 3,-2 2.42164,-1.21082 2.7117,-1 5,-1 0.33333,0 0.70186,-0.14907 1,0 0.42164,0.21082 0.60777,0.73851 1,1 0.62017,0.41345 1.47295,0.47295 2,1 0.4714,0.47141 -0.29814,1.40372 0,2 0.21082,0.42164 0.78918,0.57836 1,1 0.29814,0.59629 -0.29814,1.40372 0,2 0.21082,0.42164 0.78918,0.57836 1,1 0.0683,0.13657 0.0683,5.86343 0,6 -0.92986,1.85972 -3.50311,0.70062 -5,1 -0.73088,0.14618 -1.2769,0.81923 -2,1 -0.64676,0.16169 -1.33333,0 -2,0 -1,0 -2.01361,0.1644 -3,0 -2.46368,-0.41061 -4.79932,-1.89966 -7,-3 -1.33333,-0.66667 -2.75965,-1.1731 -4,-2 -0.78446,-0.52298 -1.15673,-1.57836 -2,-2 -0.29814,-0.14907 -0.70186,0.14907 -1,0 -4.16176,-2.08088 1.06904,0.069 -1,-2 -0.2357,-0.2357 -0.66667,0 -1,0 -0.33333,-0.66667 -0.7643,-1.29289 -1,-2 -0.1804,-0.54121 0,-3.65933 0,-4 0,-1.68074 -0.54505,-2.96996 1,-4 2.9845,-1.98966 0.90742,-0.38148 4,-1 1.03362,-0.20672 1.96025,-0.82671 3,-1 0.98639,-0.1644 2,0 3,0 3,0 6,0 9,0 0.76903,0 5.07495,0.23126 6,0 1.02262,-0.25565 1.97738,-0.74434 3,-1 0.85207,-0.21302 2.11834,0 3,0 1.05065,0 4.00765,-0.19847 5,0 1.03362,0.20673 1.96638,0.79328 3,1 0.98058,0.19612 2.05132,-0.31623 3,0 4.18376,-1.81085 1.15673,1.57836 2,2 0.59628,0.29814 1.36754,-0.21082 2,0 0.44721,0.14907 0.60777,0.73851 1,1 0.62017,0.41345 1.40372,0.55279 2,1 0.75425,0.56569 1.47702,1.21554 2,2 0.65286,0.97929 -1.15899,1.46025 1,2 0.97014,0.24254 2.16795,-0.5547 3,0 0.5547,0.3698 -0.4714,1.5286 0,2 0.4714,0.47141 1.40372,-0.29814 2,0 0.29814,0.14907 -0.2357,0.7643 0,1 0.2357,0.2357 0.68377,-0.10541 1,0 0.70711,0.2357 1.47295,0.47295 2,1 0.2357,0.2357 -0.2357,0.7643 0,1 0.4714,0.47141 1.40372,-0.29814 2,0 0.42164,0.21082 0.57836,0.78918 1,1 1.17259,0.58629 1.18689,-0.59344 2,-1 1.37936,-0.68968 0.89447,1.21106 2,-1 0.14907,-0.29814 -0.2357,-0.7643 0,-1 0.2357,-0.2357 0.7643,0.2357 1,0 0.2357,-0.2357 -0.29814,-0.85093 0,-1 2,-1 1.5,0.5 3,0 0.70711,-0.2357 1.29289,-0.7643 2,-1 0.31623,-0.10541 0.68377,0.10541 1,0 0.70711,-0.2357 1.29289,-0.7643 2,-1 0.31623,-0.10541 0.7643,0.2357 1,0 0.2357,-0.2357 -0.2357,-0.7643 0,-1 0.2357,-0.2357 0.7643,0.2357 1,0 0.2357,-0.2357 -0.10541,-0.68377 0,-1 0.2357,-0.70711 0.58655,-1.37983 1,-2 0.25435,-0.38152 1.69392,-1.13259 1,-2 -1.33333,-1.33333 -2.66667,-2.66667 -4,-4 -0.33333,0 -0.70186,0.14907 -1,0 -0.42164,-0.21082 -0.57836,-0.78918 -1,-1 -0.26294,-0.13147 -3.47708,0 -4,0 -0.24253,0 -2.96784,-0.0322 -3,0 -2.06904,2.06904 3.16176,-0.0809 -1,2 -0.29814,0.14907 -0.85093,-0.29814 -1,0 -1.27999,2.55997 -1,5.28912 -1,8 0,0.33333 0,0.66667 0,1 0,0.33333 -0.14907,0.70186 0,1 0.21082,0.42164 0.57836,0.78918 1,1 0.29814,0.14907 0.68377,-0.10541 1,0 0.70711,0.2357 1.30795,0.72318 2,1 0.9787,0.39148 2.05719,0.5286 3,1 0.42164,0.21082 0.55279,0.85093 1,1 0.63246,0.21082 1.35324,-0.16169 2,0 0.7231,0.18078 1.29289,0.7643 2,1 0.31623,0.10541 0.70186,-0.14907 1,0 1.07497,0.53748 1.88411,1.55364 3,2 0.61898,0.24759 1.33333,0 2,0 1,0 2,0 3,0 0.66667,0 1.33333,0 2,0 0.66667,0 1.36754,0.21082 2,0 0.44721,-0.14907 0.55279,-0.85093 1,-1 0.63246,-0.21082 1.36754,0.21082 2,0 0.44721,-0.14907 0.60777,-0.73851 1,-1 1.24035,-0.8269 2.75965,-1.1731 4,-2 0.78446,-0.52298 1.15673,-1.57836 2,-2 0.29814,-0.14907 0.66667,0 1,0 0.66667,0 1.35324,0.16169 2,0 0.7231,-0.18077 1.29289,-0.7643 2,-1 0.31623,-0.10541 0.68377,0.10541 1,0 1.41421,-0.4714 2.61591,-1.44636 4,-2 0.9787,-0.39148 2.0213,-0.60852 3,-1 0.66667,-0.33333 1.33333,-0.66667 2,-1 0.66667,0 1.36754,0.21082 2,0 0.44721,-0.14907 0.66667,-0.66667 1,-1 1,-0.33333 1.97738,-0.74434 3,-1 2,-0.5 0,1 3,0 0.44721,-0.14907 0.55279,-0.85093 1,-1 0.53761,-0.1792 3.15335,0 4,0 0.33333,0 0.7643,-0.2357 1,0 0.2357,0.2357 -0.2357,0.7643 0,1 0.2357,0.2357 0.7643,-0.2357 1,0 0.2357,0.2357 -0.2357,0.7643 0,1 0.2357,0.2357 0.7643,-0.2357 1,0 0.2357,0.2357 -0.14907,0.70186 0,1 0.21082,0.42164 0.78918,0.57836 1,1 0.14907,0.29814 -0.2357,0.7643 0,1 0.2357,0.2357 0.7643,-0.2357 1,0 0.2357,0.2357 0,0.66667 0,1 0,0.4715 0.0453,4.95468 0,5 -0.1,0.1 -2.9,0.1 -3,0 -0.52705,-0.52705 -0.47295,-1.47295 -1,-2 -0.2357,-0.2357 -0.68377,0.10541 -1,0 -0.70711,-0.2357 -1.47295,-0.47295 -2,-1 -0.2357,-0.2357 0,-0.66667 0,-1 0,-0.33333 0,-0.66667 0,-1 0,-1.66667 0,-3.33333 0,-5 0,-0.66667 0,-1.33333 0,-2 0,-0.33333 -0.14907,-0.70186 0,-1 2.08088,-4.16176 -0.069,1.06904 2,-1 0.2357,-0.2357 -0.2357,-0.7643 0,-1 0.4714,-0.4714 1.5286,0.47141 2,0 0.2357,-0.2357 -0.2357,-0.7643 0,-1 0.2357,-0.2357 0.66667,0 1,0 0.33333,0 0.66667,0 1,0 1.66667,0 3.33333,0 5,0 0.33333,0 0.66667,0 1,0 0.33333,0 0.70186,-0.14907 1,0 0.42164,0.21082 0.54267,0.88567 1,1 1.18812,0.29703 3.56436,0 5,0 0.33333,0 0.67662,-0.0808 1,0 1.02262,0.25566 1.97738,0.74435 3,1 0.64676,0.16169 1.33333,0 2,0 1.33333,0 2.66667,0 4,0"
       id="path3850"
       inkscape:connector-curvature="0" />
    <path
       style="opacity:0.18930042;fill:none;stroke:#000000;stroke-width:3.0999999;stroke-linecap:butt;stroke-linejoin:round;stroke-miterlimit:4;stroke-opacity:1;stroke-dasharray:none"
       d="m 22.53313,1017.3725 c 0,2.6667 0,5.3333 0,8 0,0.6667 0,1.3333 0,2 0,0.3333 -0.14907,0.7019 0,1 0.21082,0.4216 0.78918,0.5784 1,1 0.14907,0.2981 -0.14907,0.7019 0,1 0.21082,0.4216 0.66667,0.6667 1,1 0.33333,0.3333 0.57836,0.7892 1,1 0.29814,0.1491 0.7643,-0.2357 1,0 0.2357,0.2357 -0.2357,0.7643 0,1 0.4714,0.4714 1.52859,-0.4714 2,0 0.2357,0.2357 -0.2357,0.7643 0,1 0.2357,0.2357 0.66667,0 1,0 0.66667,0 1.33333,0 2,0 3,0 6,0 9,0 0.53421,0 4.7138,0.1431 5,0 4.57661,-2.2883 -4.24342,0.4145 3,-2 0.31623,-0.1054 0.70186,0.1491 1,0 0.42164,-0.2108 0.66667,-0.6667 1,-1 0.78109,-0.7811 2.1371,-2.4247 3,-3 0.62017,-0.4134 1.47295,-0.4729 2,-1 0.12122,-0.1212 -0.10264,-1.5894 0,-2 0.25565,-1.0226 0.74434,-1.9774 1,-3 0.0808,-0.3234 -0.2357,-0.7643 0,-1 0.95833,-0.9583 2.41667,2.25 1,-2 -0.63686,-1.9106 -3.92577,-0.6419 -5,-1 -0.31623,-0.1054 0.2357,-0.7643 0,-1 -0.2357,-0.2357 -0.66667,0 -1,0 -0.33333,0 -0.66667,0 -1,0 -0.45036,0 -2.69567,-0.1522 -3,0 -0.42164,0.2108 -0.57836,0.7892 -1,1 -0.29814,0.1491 -0.7643,-0.2357 -1,0 -0.2357,0.2357 0.2357,0.7643 0,1 -2.06904,2.069 0.0809,-3.1618 -2,1 -0.14907,0.2981 0,0.6667 0,1 0,4.8509 -0.38112,2.7459 3,5 2.2883,1.5255 -0.62529,0.7916 3,2 0.31623,0.1054 0.7643,-0.2357 1,0 1.0881,1.0881 -1.77451,1.3064 1,2 0.97014,0.2425 2.05132,-0.3162 3,0 0.31623,0.1054 -0.29814,0.8509 0,1 0.8,0.4 2.2,-0.4 3,0 0.42164,0.2108 0.57836,0.7892 1,1 0.14867,0.074 3.78042,0.073 4,0 0.73079,-0.2436 2.54234,-1.0847 3,-2 0.14907,-0.2981 -0.14907,-0.7019 0,-1 0.42164,-0.8433 1.57836,-1.1567 2,-2 0.14907,-0.2981 -0.14907,-0.7019 0,-1 0.21082,-0.4216 0.78918,-0.5784 1,-1 0.29814,-0.5963 -0.47141,-1.5286 0,-2 0.2357,-0.2357 0.7643,0.2357 1,0 0.2357,-0.2357 -0.2357,-0.7643 0,-1 0.2357,-0.2357 0.7643,0.2357 1,0 0.2357,-0.2357 -0.14907,-0.7019 0,-1 0.21082,-0.4216 0.66667,-0.6667 1,-1 0.33333,-0.3333 0.57836,-0.7892 1,-1 0.29814,-0.1491 0.70186,0.1491 1,0 0.42164,-0.2108 0.57836,-0.7892 1,-1 0.59628,-0.2981 1.52859,0.4714 2,0 0.2357,-0.2357 -0.27735,-0.8151 0,-1 0.87706,-0.5847 2.0213,-0.6085 3,-1 0.69205,-0.2768 1.29289,-0.7643 2,-1 1.5,-0.5 1,1 3,0 0.29814,-0.1491 -0.2357,-0.7643 0,-1 0.26836,-0.2684 3.29571,0.2348 4,0 0.70711,-0.2357 1.29289,-0.7643 2,-1 0.31623,-0.1054 0.66667,0 1,0 0.66667,0 1.33333,0 2,0 0.33333,0 0.7643,-0.2357 1,0 0.2357,0.2357 -0.2357,0.7643 0,1 0.4714,0.4714 1.52859,-0.4714 2,0 0.2357,0.2357 -0.14907,0.7019 0,1 0.21082,0.4216 0.78918,0.5784 1,1 0.29814,0.5963 -0.47141,1.5286 0,2 0.2357,0.2357 0.7643,-0.2357 1,0 0.2357,0.2357 -0.14907,0.7019 0,1 0.21082,0.4216 0.78918,0.5784 1,1 0.14907,0.2981 0,0.6667 0,1 0,0.3333 0,0.6667 0,1 0,2 0,4 0,6 0,0.3333 0.2357,0.7643 0,1 -0.2357,0.2357 -0.7643,-0.2357 -1,0 -0.2357,0.2357 0.31623,1.1054 0,1 -10.7563,-3.5854 0.73826,-0.6309 -4,-3 -0.29814,-0.1491 -0.85093,0.2981 -1,0 -0.11758,-0.2351 0,-3.3431 0,-4 0,-0.3333 0,-0.6667 0,-1 0,-0.3333 -0.2357,-0.7643 0,-1 0.2357,-0.2357 0.7643,0.2357 1,0 0.2357,-0.2357 -0.14907,-0.7019 0,-1 0.21082,-0.4216 0.78918,-0.5784 1,-1 0.14907,-0.2981 -0.2357,-0.7643 0,-1 0.2357,-0.2357 0.7643,0.2357 1,0 0.2357,-0.2357 -0.14907,-0.7019 0,-1 0.21082,-0.4216 0.78918,-0.5784 1,-1 0.14907,-0.2981 -0.14907,-0.7019 0,-1 0.21082,-0.4216 0.78918,-0.5784 1,-1 0.14907,-0.2981 -0.2357,-0.7643 0,-1 0.2357,-0.2357 0.7643,0.2357 1,0 0.2357,-0.2357 -0.2357,-0.7643 0,-1 0.2357,-0.2357 0.66667,0 1,0 0.33333,0 0.66667,0 1,0 9.9665,0 1.11438,-0.9428 5,1 2.46295,1.2315 -0.90273,-2.9027 3,1 0.2357,0.2357 -0.2357,0.7643 0,1 0.2357,0.2357 0.66667,0 1,0 1,0 2.02986,-0.2425 3,0 0.45733,0.1143 0.55279,0.8509 1,1 0.63246,0.2108 1.36754,-0.2108 2,0 0.44721,0.1491 0.55279,0.8509 1,1 0.63246,0.2108 1.36754,-0.2108 2,0 0.44721,0.1491 0.55279,0.8509 1,1 1.26491,0.4216 2.73509,-0.4216 4,0 0.44721,0.1491 0.55279,0.8509 1,1 0.72365,0.2412 3.67036,-0.3296 4,0 0.2357,0.2357 -0.2357,0.7643 0,1 0.20444,0.2044 2.60351,-0.1983 3,0 0.42164,0.2108 0.57836,0.7892 1,1 0.36614,0.1831 6.59972,0 8,0 0.33333,0 0.66667,0 1,0 0.33333,0 0.7643,-0.2357 1,0 0.2357,0.2357 -0.2357,0.7643 0,1 0.2357,0.2357 0.66667,0 1,0 1.66667,0 3.33333,0 5,0 1,0 2.05132,0.3162 3,0 0.44721,-0.1491 0.55279,-0.8509 1,-1 0.63246,-0.2108 1.4453,0.3698 2,0 0.62017,-0.4135 0.47295,-1.473 1,-2 0.52705,-0.5271 1.37983,-0.5866 2,-1 0.78446,-0.523 1.21554,-1.477 2,-2 0.62017,-0.4135 1.47295,-0.473 2,-1 0.2357,-0.2357 -0.31623,-0.8946 0,-1 0.94868,-0.3162 2.05132,0.3162 3,0 0.31623,-0.1054 -0.29814,-0.8509 0,-1 0.59628,-0.2981 1.36754,0.2108 2,0 0.44721,-0.1491 0.66667,-0.6667 1,-1 0.33333,-0.3333 0.78918,-0.5784 1,-1 0.14907,-0.2981 -0.2357,-0.7643 0,-1 0.2357,-0.2357 1,0.3333 1,0 0,-1.3744 -2.62563,-1 -4,-1 -1,0 -2,0 -3,0 -0.73408,0 -5.65137,-0.1743 -6,0 -0.42164,0.2108 -0.57836,0.7892 -1,1 -0.29814,0.1491 -0.70186,-0.1491 -1,0 -0.42164,0.2108 -0.57836,0.7892 -1,1 -0.59628,0.2981 -1.5286,-0.4714 -2,0 -2.06904,2.069 3.16176,-0.081 -1,2 -0.29814,0.1491 -0.7643,-0.2357 -1,0 -0.0803,0.08 0,4.2129 0,5 0,0.3333 0,0.6667 0,1 0,1.3333 0,2.6667 0,4 0,0.3333 -0.29814,0.8509 0,1 0.59628,0.2981 1.36754,-0.2108 2,0 0.44721,0.1491 0.55279,0.8509 1,1 0.94868,0.3162 2.05132,-0.3162 3,0 0.70711,0.2357 1.2769,0.8192 2,1 0.64676,0.1617 1.33333,0 2,0 1,0 2,0 3,0 0.66667,0 1.34628,-0.1307 2,0 1.03362,0.2067 1.96025,0.8267 3,1 1.64399,0.274 3.33333,0 5,0 2,0 4,0 6,0 0.66667,0 1.36754,0.2108 2,0 0.44721,-0.1491 0.57836,-0.7892 1,-1 0.94281,-0.4714 2.12294,-0.4153 3,-1 0.27735,-0.1849 -0.10541,-0.6838 0,-1 0.2357,-0.7071 0.47295,-1.473 1,-2 0.52705,-0.5271 1.47295,-0.473 2,-1 0.2357,-0.2357 -0.1849,-0.7227 0,-1 0.52298,-0.7845 1.43431,-1.2458 2,-2 0.44721,-0.5963 0.47295,-1.473 1,-2 2.5259,-2.5259 1.15279,-0.3843 3,-1 0.70711,-0.2357 1.37983,-0.5866 2,-1 0.39223,-0.2615 0.55279,-0.8509 1,-1 0.63246,-0.2108 1.36754,0.2108 2,0 0.44721,-0.1491 0.55279,-0.8509 1,-1 1.36539,-0.4551 4.63461,0.4551 6,0 0.31623,-0.1054 -0.29814,-0.8509 0,-1 0.37618,-0.1881 5.85443,0.036 6,0 4.94281,-1.2357 -2.09272,-1 2,-1 0.66667,0 1.33333,0 2,0 0.33333,0 0.7643,-0.2357 1,0 0.2357,0.2357 -0.14907,0.7019 0,1 2.08088,4.1618 -0.069,-1.069 2,1 0.4714,0.4714 -0.29814,1.4037 0,2 0.21082,0.4216 0.78918,0.5784 1,1 0.14907,0.2981 0,0.6667 0,1 0,0.3333 0,0.6667 0,1 0,1.3333 0,2.6667 0,4 0,0.3672 0.0402,3.9598 0,4 -0.2357,0.2357 -0.66667,0 -1,0 -1,0 -2,0 -3,0 -0.55816,0 -4.54224,0.1526 -5,0 -0.44721,-0.1491 -0.85093,-0.5528 -1,-1 -0.0702,-0.2104 -0.13003,-4.4799 0,-5 1.07308,-4.2923 0.17218,-2.1148 3,-4 1.98106,0.1 0.47295,-1.473 1,-2 0.2357,-0.2357 0.70186,0.1491 1,0 0.42164,-0.2108 0.57836,-0.7892 1,-1 0.59628,-0.2981 1.5286,0.4714 2,0 0.2357,-0.2357 -0.2357,-0.7643 0,-1 0.2357,-0.2357 0.70186,0.1491 1,0 0.42164,-0.2108 0.57836,-0.7892 1,-1 0.29814,-0.1491 0.67662,0.081 1,0 1.02262,-0.2557 2.05719,-0.5286 3,-1 0.42164,-0.2108 0.57836,-0.7892 1,-1 0.29814,-0.1491 0.70186,0.1491 1,0 0.42164,-0.2108 0.55279,-0.8509 1,-1 0.63246,-0.2108 1.33333,0 2,0 0.66667,0 1.33333,0 2,0 1,0 2.01942,-0.1961 3,0 0.73088,0.1462 1.30795,0.7232 2,1 9.18744,3.675 -0.31246,-0.875 4,2 0.62017,0.4134 1.40372,0.5528 2,1 0.75425,0.5657 1.33333,1.3333 2,2 0.33333,0.3333 0.57836,0.7892 1,1 0.94281,0.4714 2.25464,0.2546 3,1 0.4714,0.4714 -0.4714,1.5286 0,2 0.4714,0.4714 1.35324,-0.1617 2,0 0.7231,0.1808 1.33333,0.6667 2,1 1,0 2.01942,-0.1961 3,0 0.73088,0.1462 1.26912,0.8538 2,1 0.98058,0.1961 2.01361,-0.1644 3,0 1.03975,0.1733 1.9565,0.8509 3,1 1.31993,0.1886 2.70648,-0.3234 4,0 0.32338,0.081 -0.29814,0.8509 0,1 2,1 1.5,-0.5 3,0 0.70711,0.2357 1.26912,0.8538 2,1 1.31268,0.2625 4.41011,0 6,0 0.66667,0 1.33333,0 2,0 0.33333,0 0.67662,0.081 1,0 2.04524,-0.5113 3.95476,-1.4887 6,-2 2,-0.5 0,1 3,0 0.44721,-0.1491 0.57836,-0.7892 1,-1 0.94281,-0.4714 2.12294,-0.4153 3,-1 0.27735,-0.1849 -0.14907,-0.7019 0,-1 0.76579,-1.5316 1.78202,-0.782 3,-2 0.2357,-0.2357 -0.14907,-0.7019 0,-1 0.21082,-0.4216 0.78918,-0.5784 1,-1 0.14907,-0.2981 -0.2357,-0.7643 0,-1 0.2357,-0.2357 1.31623,0.1054 1,0 -2.30217,-0.7674 -4.63108,-1.4736 -7,-2 -0.65079,-0.1446 -1.36754,0.2108 -2,0 -0.44721,-0.1491 -0.55279,-0.8509 -1,-1 -0.0657,-0.022 -4.93433,-0.022 -5,0 -0.44721,0.1491 -0.57836,0.7892 -1,1 -0.59628,0.2981 -1.40372,-0.2981 -2,0 -0.42164,0.2108 -0.60777,0.7385 -1,1 -0.62017,0.4134 -1.37983,0.5865 -2,1 -1.98106,-0.1 -0.47295,1.4729 -1,2 -0.2357,0.2357 -0.7643,-0.2357 -1,0 -0.4714,0.4714 0.4714,1.5286 0,2 -0.2357,0.2357 -0.85093,-0.2981 -1,0 -0.44721,0.8944 0,2 0,3 0,0.4504 -0.15217,2.6957 0,3 1.10553,2.2111 0.62064,0.3103 2,1 3.04956,1.5248 -1.82894,0.7928 3,2 4,1 0.5,-0.5 3,0 3.13914,0.6278 4.14072,1.0469 7,2 10.35877,3.4529 -4.13523,-1.0271 6,1 0.73088,0.1462 1.29289,0.7643 2,1 1.5,0.5 1,-1 3,0 0.29814,0.1491 -0.31623,0.8946 0,1 0.94868,0.3162 2.03848,-0.2747 3,0 1.43336,0.4095 2.58579,1.5286 4,2 0.57299,0.191 4.06118,0 5,0 1.38388,0 6.96557,0.2586 8,0 8.32352,-2.0809 -1.20711,0.069 5,-2 0.31623,-0.1054 0.66667,0 1,0 0.66667,-0.3333 1.33333,-0.6667 2,-1 0.66667,-0.3333 1.37983,-0.5865 2,-1 0.39223,-0.2615 0.55279,-0.8509 1,-1 0.63246,-0.2108 1.36754,0.2108 2,0 0.44721,-0.1491 0.55279,-0.8509 1,-1 0.63246,-0.2108 1.5286,0.4714 2,0 2.86193,-2.8619 -2.49509,-1.2524 1,-3 0.52042,-2.3387 2.83002,-0.61 4,-1 7.24342,-2.4145 -1.57661,0.2883 3,-2 2.42164,-1.2108 2.7117,-1 5,-1 0.33333,0 0.70186,-0.1491 1,0 0.42164,0.2108 0.60777,0.7385 1,1 0.62017,0.4134 1.47295,0.4729 2,1 0.4714,0.4714 -0.29814,1.4037 0,2 0.21082,0.4216 0.78918,0.5784 1,1 0.29814,0.5963 -0.29814,1.4037 0,2 0.21082,0.4216 0.78918,0.5784 1,1 0.0683,0.1366 0.0683,5.8634 0,6 -0.92986,1.8597 -3.50311,0.7006 -5,1 -0.73088,0.1462 -1.2769,0.8192 -2,1 -0.64676,0.1617 -1.33333,0 -2,0 -1,0 -2.01361,0.1644 -3,0 -2.46368,-0.4106 -4.79932,-1.8997 -7,-3 -1.33333,-0.6667 -2.75965,-1.1731 -4,-2 -0.78446,-0.523 -1.15673,-1.5784 -2,-2 -0.29814,-0.1491 -0.70186,0.1491 -1,0 -4.16176,-2.0809 1.06904,0.069 -1,-2 -0.2357,-0.2357 -0.66667,0 -1,0 -0.33333,-0.6667 -0.7643,-1.2929 -1,-2 -0.1804,-0.5412 0,-3.6593 0,-4 0,-1.6807 -0.54505,-2.97 1,-4 2.9845,-1.9897 0.90742,-0.3815 4,-1 1.03362,-0.2067 1.96025,-0.8267 3,-1 0.98639,-0.1644 2,0 3,0 3,0 6,0 9,0 0.76903,0 5.07495,0.2313 6,0 1.02262,-0.2557 1.97738,-0.7443 3,-1 0.85207,-0.213 2.11834,0 3,0 1.05065,0 4.00765,-0.1985 5,0 1.03362,0.2067 1.96638,0.7933 3,1 0.98058,0.1961 2.05132,-0.3162 3,0 4.18376,-1.8109 1.15673,1.5784 2,2 0.59628,0.2981 1.36754,-0.2108 2,0 0.44721,0.1491 0.60777,0.7385 1,1 0.62017,0.4134 1.40372,0.5528 2,1 0.75425,0.5657 1.47702,1.2155 2,2 0.65286,0.9793 -1.15899,1.4602 1,2 0.97014,0.2425 2.16795,-0.5547 3,0 0.5547,0.3698 -0.4714,1.5286 0,2 0.4714,0.4714 1.40372,-0.2981 2,0 0.29814,0.1491 -0.2357,0.7643 0,1 0.2357,0.2357 0.68377,-0.1054 1,0 0.70711,0.2357 1.47295,0.4729 2,1 0.2357,0.2357 -0.2357,0.7643 0,1 0.4714,0.4714 1.40372,-0.2981 2,0 0.42164,0.2108 0.57836,0.7892 1,1 1.17259,0.5863 1.18689,-0.5934 2,-1 1.37936,-0.6897 0.89447,1.2111 2,-1 0.14907,-0.2981 -0.2357,-0.7643 0,-1 0.2357,-0.2357 0.7643,0.2357 1,0 0.2357,-0.2357 -0.29814,-0.8509 0,-1 2,-1 1.5,0.5 3,0 0.70711,-0.2357 1.29289,-0.7643 2,-1 0.31623,-0.1054 0.68377,0.1054 1,0 0.70711,-0.2357 1.29289,-0.7643 2,-1 0.31623,-0.1054 0.7643,0.2357 1,0 0.2357,-0.2357 -0.2357,-0.7643 0,-1 0.2357,-0.2357 0.7643,0.2357 1,0 0.2357,-0.2357 -0.10541,-0.6838 0,-1 0.2357,-0.7071 0.58655,-1.3798 1,-2 0.25435,-0.3815 1.69392,-1.1326 1,-2 -1.33333,-1.3333 -2.66667,-2.6667 -4,-4 -0.33333,0 -0.70186,0.1491 -1,0 -0.42164,-0.2108 -0.57836,-0.7892 -1,-1 -0.26294,-0.1315 -3.47708,0 -4,0 -0.24253,0 -2.96784,-0.032 -3,0 -2.06904,2.069 3.16176,-0.081 -1,2 -0.29814,0.1491 -0.85093,-0.2981 -1,0 -1.27999,2.56 -1,5.2891 -1,8 0,0.3333 0,0.6667 0,1 0,0.3333 -0.14907,0.7019 0,1 0.21082,0.4216 0.57836,0.7892 1,1 0.29814,0.1491 0.68377,-0.1054 1,0 0.70711,0.2357 1.30795,0.7232 2,1 0.9787,0.3915 2.05719,0.5286 3,1 0.42164,0.2108 0.55279,0.8509 1,1 0.63246,0.2108 1.35324,-0.1617 2,0 0.7231,0.1808 1.29289,0.7643 2,1 0.31623,0.1054 0.70186,-0.1491 1,0 1.07497,0.5375 1.88411,1.5536 3,2 0.61898,0.2476 1.33333,0 2,0 1,0 2,0 3,0 0.66667,0 1.33333,0 2,0 0.66667,0 1.36754,0.2108 2,0 0.44721,-0.1491 0.55279,-0.8509 1,-1 0.63246,-0.2108 1.36754,0.2108 2,0 0.44721,-0.1491 0.60777,-0.7385 1,-1 1.24035,-0.8269 2.75965,-1.1731 4,-2 0.78446,-0.523 1.15673,-1.5784 2,-2 0.29814,-0.1491 0.66667,0 1,0 0.66667,0 1.35324,0.1617 2,0 0.7231,-0.1808 1.29289,-0.7643 2,-1 0.31623,-0.1054 0.68377,0.1054 1,0 1.41421,-0.4714 2.61591,-1.4464 4,-2 0.9787,-0.3915 2.0213,-0.6085 3,-1 0.66667,-0.3333 1.33333,-0.6667 2,-1 0.66667,0 1.36754,0.2108 2,0 0.44721,-0.1491 0.66667,-0.6667 1,-1 1,-0.3333 1.97738,-0.7443 3,-1 2,-0.5 0,1 3,0 0.44721,-0.1491 0.55279,-0.8509 1,-1 0.53761,-0.1792 3.15335,0 4,0 0.33333,0 0.7643,-0.2357 1,0 0.2357,0.2357 -0.2357,0.7643 0,1 0.2357,0.2357 0.7643,-0.2357 1,0 0.2357,0.2357 -0.2357,0.7643 0,1 0.2357,0.2357 0.7643,-0.2357 1,0 0.2357,0.2357 -0.14907,0.7019 0,1 0.21082,0.4216 0.78918,0.5784 1,1 0.14907,0.2981 -0.2357,0.7643 0,1 0.2357,0.2357 0.7643,-0.2357 1,0 0.2357,0.2357 0,0.6667 0,1 0,0.4715 0.0453,4.9547 0,5 -0.1,0.1 -2.9,0.1 -3,0 -0.52705,-0.5271 -0.47295,-1.4729 -1,-2 -0.2357,-0.2357 -0.68377,0.1054 -1,0 -0.70711,-0.2357 -1.47295,-0.4729 -2,-1 -0.2357,-0.2357 0,-0.6667 0,-1 0,-0.3333 0,-0.6667 0,-1 0,-1.6667 0,-3.3333 0,-5 0,-0.6667 0,-1.3333 0,-2 0,-0.3333 -0.14907,-0.7019 0,-1 2.08088,-4.1618 -0.069,1.069 2,-1 0.2357,-0.2357 -0.2357,-0.7643 0,-1 0.4714,-0.4714 1.5286,0.4714 2,0 0.2357,-0.2357 -0.2357,-0.7643 0,-1 0.2357,-0.2357 0.66667,0 1,0 0.33333,0 0.66667,0 1,0 1.66667,0 3.33333,0 5,0 0.33333,0 0.66667,0 1,0 0.33333,0 0.70186,-0.1491 1,0 0.42164,0.2108 0.54267,0.8857 1,1 1.18812,0.297 3.56436,0 5,0 0.33333,0 0.67662,-0.081 1,0 1.02262,0.2557 1.97738,0.7443 3,1 0.64676,0.1617 1.33333,0 2,0 1.33333,0 2.66667,0 4,0"
       id="path3850-8"
       inkscape:connector-curvature="0" />
    <text
       xml:space="preserve"
       style="font-size:24px;font-style:normal;font-variant:normal;font-weight:bold;font-stretch:normal;text-align:center;line-height:125%;letter-spacing:0px;word-spacing:0px;text-anchor:middle;fill:#000000;fill-opacity:1;stroke:none;font-family:Arial;-inkscape-font-specification:Arial Bold"
       x="18.213106"
       y="826.28577"
       id="text5524"
       sodipodi:linespacing="125%"><tspan
         sodipodi:role="line"
         x="18.213106"
         y="826.28577"
         id="tspan5530"
         style="font-size:22px;font-weight:bold;text-align:start;text-anchor:start">Professional Help from Doctors</tspan></text>
    <text
       xml:space="preserve"
       style="font-size:24px;font-style:normal;font-variant:normal;font-weight:bold;font-stretch:normal;line-height:125%;letter-spacing:0px;word-spacing:0px;fill:#000000;fill-opacity:1;stroke:none;font-family:Arial;-inkscape-font-specification:Arial Bold"
       x="145"
       y="173"
       id="text5532"
       sodipodi:linespacing="125%"
       transform="translate(0,730.36218)"><tspan
         sodipodi:role="line"
         id="tspan5534"
         x="145"
         y="173" /></text>
    <text
       xml:space="preserve"
       style="font-size:24px;font-style:normal;font-variant:normal;font-weight:bold;font-stretch:normal;line-height:125%;letter-spacing:0px;word-spacing:0px;fill:#000000;fill-opacity:1;stroke:none;font-family:Arial;-inkscape-font-specification:Arial Bold"
       x="17.017395"
       y="858.86975"
       id="text5536"
       sodipodi:linespacing="125%"><tspan
         sodipodi:role="line"
         x="17.017395"
         y="858.86975"
         style="font-size:20px;font-weight:normal;-inkscape-font-specification:Arial Bold"
         id="tspan5933">Show your personal health data to your</tspan><tspan
         sodipodi:role="line"
         x="17.017395"
         y="883.86975"
         style="font-size:20px;font-weight:normal;-inkscape-font-specification:Arial Bold"
         id="tspan6147">doctor for faster diagnosis.</tspan><tspan
         sodipodi:role="line"
         x="17.017395"
         y="908.86975"
         style="font-size:20px;font-weight:normal;-inkscape-font-specification:Arial Bold"
         id="tspan5927" /><tspan
         sodipodi:role="line"
         x="17.017395"
         y="933.86975"
         style="font-size:20px;font-weight:normal;-inkscape-font-specification:Arial Bold"
         id="tspan5931">The fast way of transferring your</tspan><tspan
         sodipodi:role="line"
         x="17.017395"
         y="958.86975"
         style="font-size:20px;font-weight:normal;-inkscape-font-specification:Arial Bold"
         id="tspan6153">personal health records between </tspan><tspan
         sodipodi:role="line"
         x="17.017395"
         y="983.86975"
         style="font-size:20px;font-weight:normal;-inkscape-font-specification:Arial Bold"
         id="tspan6155">various doctors..</tspan></text>
    <g
       id="layer1-7"
       inkscape:label="Layer 1"
       transform="matrix(0.44460436,0,0,0.44460436,272.29811,665.81453)">
      <g
         transform="translate(1202.9039,191.90683)"
         id="g4536">
        <path
           transform="translate(-1200.8567,-139.90335)"
           d="m 448.57143,322.36218 c 0,43.3938 -35.17763,78.57143 -78.57143,78.57143 -43.3938,0 -78.57143,-35.17763 -78.57143,-78.57143 0,-43.3938 35.17763,-78.57142 78.57143,-78.57142 43.3938,0 78.57143,35.17762 78.57143,78.57142 z"
           sodipodi:ry="78.571426"
           sodipodi:rx="78.571426"
           sodipodi:cy="322.36218"
           sodipodi:cx="370"
           style="fill:#ffffff;stroke:none"
           sodipodi:type="arc"
           id="path3950" />
        <path
           style="fill:#ffffff;stroke:none"
           d="m -830.85665,284.15305 c -63.15147,0 -115.66042,76.75511 -126.3125,177.8125 -1.2971,12.30571 -1.96875,24.97428 -1.96875,37.90625 0,3.74401 0.0442,7.45908 0.15625,11.15625 33.22962,36.61157 78.3772,59.125 128.125,59.125 49.7478,0 94.89534,-22.51343 128.12504,-59.125 0.1121,-3.69717 0.1562,-7.41224 0.1562,-11.15625 0,-12.93197 -0.6716,-25.60054 -1.9687,-37.90625 -10.6521,-101.05739 -63.16107,-177.8125 -126.31254,-177.8125 z"
           id="path3952"
           inkscape:connector-curvature="0" />
        <path
           inkscape:connector-curvature="0"
           id="path3954"
           d="m -830.85665,99.8779 c -45.55556,0 -82.5625,37.03819 -82.5625,82.59375 0,45.55556 37.00694,82.5625 82.5625,82.5625 45.55556,0 82.5625,-37.00694 82.5625,-82.5625 0,-45.55556 -37.00694,-82.59375 -82.5625,-82.59375 z m 0,8 c 41.23204,0 74.5625,33.36171 74.5625,74.59375 0,41.23204 -33.33046,74.5625 -74.5625,74.5625 -41.23204,0 -74.5625,-33.33046 -74.5625,-74.5625 0,-41.23204 33.33046,-74.59375 74.5625,-74.59375 z"
           style="font-size:medium;font-style:normal;font-variant:normal;font-weight:normal;font-stretch:normal;text-indent:0;text-align:start;text-decoration:none;line-height:normal;letter-spacing:normal;word-spacing:normal;text-transform:none;direction:ltr;block-progression:tb;writing-mode:lr-tb;text-anchor:start;baseline-shift:baseline;color:#000000;fill:#000000;fill-opacity:1;fill-rule:nonzero;stroke:none;stroke-width:8;marker:none;visibility:visible;display:inline;overflow:visible;enable-background:accumulate;font-family:Sans;-inkscape-font-specification:Sans" />
        <path
           inkscape:connector-curvature="0"
           id="path3956"
           d="m -830.84936,280.16322 c -33.19629,0 -63.27444,20.15778 -86.125,52.6875 -22.85056,32.52972 -38.8007,77.58239 -44.1875,128.6875 -1.31201,12.44717 -1.96875,25.27328 -1.96875,38.34375 0,3.77549 0.0427,7.53482 0.15625,11.28125 l 0.0312,1.46875 1,1.09375 c 33.89301,37.34242 80.1392,60.4375 131.0938,60.4375 50.9546,0 97.20075,-23.09508 131.09375,-60.4375 l 0.9687,-1.09375 0.063,-1.46875 c 0.1135,-3.74654 0.1562,-7.50583 0.1562,-11.28125 0,-13.07046 -0.688,-25.89657 -2,-38.34375 -5.3868,-51.10511 -21.3057,-96.15778 -44.15625,-128.6875 -22.85097,-32.52972 -52.92911,-52.6875 -86.1254,-52.6875 z m 0,8 c 29.95518,0 57.70769,18.20032 79.5625,49.3125 21.85485,31.11218 37.48475,74.95397 42.74995,124.90625 1.2822,12.16424 1.9688,24.70652 1.9688,37.5 0,3.18669 -0.046,6.33096 -0.125,9.46875 -32.4696,35.25814 -76.09056,56.8125 -124.15625,56.8125 -48.06511,0 -91.68684,-21.55512 -124.15625,-56.8125 -0.0791,-3.13786 -0.125,-6.28212 -0.125,-9.46875 0,-12.79347 0.65531,-25.33575 1.9375,-37.5 5.26528,-49.95228 20.92645,-93.79407 42.78125,-124.90625 21.8548,-31.11218 49.60732,-49.3125 79.5625,-49.3125 z"
           style="font-size:medium;font-style:normal;font-variant:normal;font-weight:normal;font-stretch:normal;text-indent:0;text-align:start;text-decoration:none;line-height:normal;letter-spacing:normal;word-spacing:normal;text-transform:none;direction:ltr;block-progression:tb;writing-mode:lr-tb;text-anchor:start;baseline-shift:baseline;color:#000000;fill:#000000;fill-opacity:1;fill-rule:nonzero;stroke:none;stroke-width:8;marker:none;visibility:visible;display:inline;overflow:visible;enable-background:accumulate;font-family:Sans;-inkscape-font-specification:Sans" />
        <g
           id="g3958"
           transform="translate(-1739.4431,-44.836785)"
           style="fill:#000000">
          <path
             inkscape:connector-curvature="0"
             id="path3960"
             d="m 782.28146,505.8125 c -1.2971,12.30571 -1.96875,24.97428 -1.96875,37.90625 0,3.74401 0.0442,7.45908 0.15625,11.15625 33.22961,36.61157 78.37719,59.125 128.12503,59.125 49.74781,0 94.89531,-22.51343 128.12501,-59.125 0.1121,-3.69717 0.1562,-7.41224 0.1562,-11.15625 0,-12.93197 -0.6716,-25.60054 -1.9687,-37.90625 C 1001.8558,536.32426 957.44529,555 908.59399,555 859.74257,555 815.3321,536.32426 782.28146,505.8125 z"
             style="fill:#000000;stroke:none" />
          <path
             style="font-size:medium;font-style:normal;font-variant:normal;font-weight:normal;font-stretch:normal;text-indent:0;text-align:start;text-decoration:none;line-height:normal;letter-spacing:normal;word-spacing:normal;text-transform:none;direction:ltr;block-progression:tb;writing-mode:lr-tb;text-anchor:start;baseline-shift:baseline;color:#000000;fill:#000000;fill-opacity:1;stroke:none;stroke-width:8;marker:none;visibility:visible;display:inline;overflow:visible;enable-background:accumulate;font-family:Sans;-inkscape-font-specification:Sans"
             d="m 782.0625,501.8125 a 4.0004,4.0004 0 0 0 -3.75,3.59375 c -1.31201,12.44717 -2,25.24203 -2,38.3125 0,3.77549 0.0427,7.53482 0.15625,11.28125 A 4.0004,4.0004 0 0 0 777.5,557.5625 C 811.39295,594.90492 857.6391,618 908.59375,618 c 50.9546,0 97.20075,-23.09508 131.09375,-60.4375 A 4.0004,4.0004 0 0 0 1040.7188,555 c 0.1135,-3.74654 0.1562,-7.50583 0.1562,-11.28125 0,-13.07046 -0.688,-25.86532 -2,-38.3125 a 4.0004,4.0004 0 0 0 -6.6875,-2.53125 C 999.85128,532.72717 956.42559,551 908.59375,551 860.76178,551 817.33616,532.72716 785,502.875 a 4.0004,4.0004 0 0 0 -2.9375,-1.0625 z m 3.59375,12.0625 c 33.05873,28.03639 75.94353,45.125 122.9375,45.125 46.99385,0 89.87872,-17.08861 122.93745,-45.125 0.8133,9.76763 1.3438,19.6931 1.3438,29.84375 0,3.18669 -0.046,6.33096 -0.125,9.46875 C 1000.2805,588.44488 956.65886,610 908.59375,610 860.52859,610 816.9069,588.44488 784.4375,553.1875 c -0.0791,-3.13786 -0.125,-6.28212 -0.125,-9.46875 0,-10.15064 0.53049,-20.07612 1.34375,-29.84375 z"
             id="path3962"
             inkscape:connector-curvature="0" />
        </g>
        <path
           id="path3876"
           d="m -876.82006,288.27519 c -49.0164,26.96668 -86.44889,101.85538 -95.54045,194.40625 35.32047,34.98817 82.70208,56.51248 134.84852,56.78125 l 0,-202.3125 c -8.43452,-24.05336 -26.75178,-40.18667 -39.30807,-48.875 z"
           style="fill:#ffffff;stroke:#000000;stroke-width:8;stroke-linecap:butt;stroke-linejoin:round;stroke-miterlimit:4;stroke-opacity:1;stroke-dasharray:none"
           inkscape:connector-curvature="0" />
        <path
           id="path3878"
           d="m -876.82006,288.27519 c -4.24667,2.33633 -8.39083,5.05768 -12.45276,8.09375 2.34829,9.01644 1.2405,20.80597 0.64994,32.1875 l 20.58994,6.46875 -12.11479,15.5625 c 29.10666,10.96269 33.09358,70.23865 42.63574,120.8125 l 0,-134.25 c -8.43452,-24.05336 -26.75178,-40.18667 -39.30807,-48.875 z"
           style="fill:#ffffff;stroke:#000000;stroke-width:8;stroke-linecap:butt;stroke-linejoin:round;stroke-miterlimit:4;stroke-opacity:1;stroke-dasharray:none"
           inkscape:connector-curvature="0" />
        <path
           inkscape:connector-curvature="0"
           style="fill:#ffffff;stroke:#000000;stroke-width:8;stroke-linecap:butt;stroke-linejoin:round;stroke-miterlimit:4;stroke-opacity:1;stroke-dasharray:none"
           d="m -784.89326,289.39959 c 49.0164,26.96668 86.44889,101.85538 95.54045,194.40625 -35.32047,34.98817 -82.70208,56.51248 -134.84852,56.78125 l 0,-202.3125 c 8.43452,-24.05336 26.75178,-40.18667 39.30807,-48.875 z"
           id="path3882" />
        <path
           inkscape:connector-curvature="0"
           style="fill:#ffffff;stroke:#000000;stroke-width:8;stroke-linecap:butt;stroke-linejoin:round;stroke-miterlimit:4;stroke-opacity:1;stroke-dasharray:none"
           d="m -784.89326,289.39959 c 4.24667,2.33633 8.39083,5.05768 12.45276,8.09375 -2.34829,9.01644 -1.2405,20.80597 -0.64994,32.1875 l -20.58994,6.46875 12.11479,15.5625 c -29.10666,10.96269 -33.09358,70.23865 -42.63574,120.8125 l 0,-134.25 c 8.43452,-24.05336 26.75178,-40.18667 39.30807,-48.875 z"
           id="path3884" />
        <path
           style="fill:#ffffff;fill-opacity:1;stroke:#000000;stroke-width:8;stroke-linecap:round;stroke-linejoin:round;stroke-miterlimit:4;stroke-dasharray:none"
           d="m -770.70997,126.49526 c 0,15.52469 -12.58526,28.10994 -28.10995,28.10994 -15.5247,0 -28.10995,-12.58525 -28.10995,-28.10994 0,-15.5247 12.58525,-28.10995 28.10995,-28.10995 15.52469,0 28.10995,12.58525 28.10995,28.10995 z"
           id="path3886"
           inkscape:connector-curvature="0" />
        <path
           inkscape:connector-curvature="0"
           transform="matrix(0.08783853,0,0,0.08783853,-810.81992,109.56348)"
           style="fill:#000000;fill-opacity:1;stroke:none"
           d="m 182.15241,192.76021 c 0,25.15 -20.38811,45.5381 -45.53811,45.5381 -25.15,0 -45.538101,-20.3881 -45.538101,-45.5381 0,-25.15 20.388101,-45.53811 45.538101,-45.53811 25.15,0 45.53811,20.38811 45.53811,45.53811 z"
           id="path3888" />
        <path
           sodipodi:nodetypes="cc"
           inkscape:connector-curvature="0"
           id="path3890"
           d="m -780.42553,385.41493 c 0,0 29.28783,-2.87198 37.29226,-10.60679"
           style="fill:none;stroke:#000000;stroke-width:11.25;stroke-linecap:butt;stroke-linejoin:miter;stroke-miterlimit:4;stroke-opacity:1;stroke-dasharray:none" />
      </g>
    </g>
  </g>
</svg>
