<?xml version="1.0" encoding="UTF-8" standalone="no"?>
<!-- Created with Inkscape (http://www.inkscape.org/) -->

<svg
   xmlns:dc="http://purl.org/dc/elements/1.1/"
   xmlns:cc="http://creativecommons.org/ns#"
   xmlns:rdf="http://www.w3.org/1999/02/22-rdf-syntax-ns#"
   xmlns:svg="http://www.w3.org/2000/svg"
   xmlns="http://www.w3.org/2000/svg"
   xmlns:sodipodi="http://sodipodi.sourceforge.net/DTD/sodipodi-0.dtd"
   xmlns:inkscape="http://www.inkscape.org/namespaces/inkscape"
   width="512"
   height="322"
   id="svg2"
   version="1.1"
   inkscape:version="0.48.3.1 r9886"
   sodipodi:docname="drawing2.svg"
   inkscape:export-filename="/home/joewandy/Project/scopy/assets/drawing3.png"
   inkscape:export-xdpi="90"
   inkscape:export-ydpi="90">
  <defs
     id="defs4" />
  <sodipodi:namedview
     id="base"
     pagecolor="#ffffff"
     bordercolor="#666666"
     borderopacity="1.0"
     inkscape:pageopacity="0.0"
     inkscape:pageshadow="2"
     inkscape:zoom="1.0827573"
     inkscape:cx="301.48565"
     inkscape:cy="167.14286"
     inkscape:document-units="px"
     inkscape:current-layer="layer1"
     showgrid="false"
     inkscape:window-width="1301"
     inkscape:window-height="744"
     inkscape:window-x="65"
     inkscape:window-y="24"
     inkscape:window-maximized="1" />
  <metadata
     id="metadata7">
    <rdf:RDF>
      <cc:Work
         rdf:about="">
        <dc:format>image/svg+xml</dc:format>
        <dc:type
           rdf:resource="http://purl.org/dc/dcmitype/StillImage" />
        <dc:title></dc:title>
      </cc:Work>
    </rdf:RDF>
  </metadata>
  <g
     inkscape:label="Layer 1"
     inkscape:groupmode="layer"
     id="layer1"
     transform="translate(0,-730.36218)">
    <text
       xml:space="preserve"
       style="font-size:40px;font-style:normal;font-weight:normal;line-height:125%;letter-spacing:0px;word-spacing:0px;fill:#000000;fill-opacity:1;stroke:none;font-family:Sans"
       x="220"
       y="42"
       id="text3763"
       sodipodi:linespacing="125%"
       transform="translate(0,730.36218)"><tspan
         sodipodi:role="line"
         id="tspan3765"
         x="220"
         y="42"
         style="font-style:normal;font-variant:normal;font-weight:bold;font-stretch:normal;font-family:Arial;-inkscape-font-specification:Arial Bold" /></text>
    <path
       style="opacity:0.18930042;fill:none;stroke:#000000;stroke-width:3.0999999;stroke-linecap:butt;stroke-linejoin:round;stroke-miterlimit:4;stroke-opacity:1;stroke-dasharray:none"
       d="m 25,757.36218 c 0,2.66667 0,5.33333 0,8 0,0.66667 0,1.33333 0,2 0,0.33333 -0.149071,0.70186 0,1 0.210819,0.42164 0.789181,0.57836 1,1 0.149071,0.29814 -0.149071,0.70186 0,1 0.210819,0.42164 0.666667,0.66667 1,1 0.333333,0.33333 0.578363,0.78918 1,1 0.298142,0.14907 0.764298,-0.2357 1,0 0.235702,0.2357 -0.235702,0.7643 0,1 0.471405,0.47141 1.528595,-0.4714 2,0 0.235702,0.2357 -0.235702,0.7643 0,1 0.235702,0.2357 0.666667,0 1,0 0.666667,0 1.333333,0 2,0 3,0 6,0 9,0 0.534213,0 4.713797,0.1431 5,0 4.576607,-2.2883 -4.243416,0.41447 3,-2 0.316228,-0.10541 0.701858,0.14907 1,0 0.421637,-0.21082 0.666667,-0.66667 1,-1 0.781086,-0.78109 2.1371,-2.42473 3,-3 0.620174,-0.41345 1.472954,-0.47295 2,-1 0.121218,-0.12122 -0.102641,-1.58944 0,-2 0.255655,-1.02262 0.744345,-1.97738 1,-3 0.08084,-0.32338 -0.235702,-0.7643 0,-1 0.958333,-0.95833 2.416667,2.25 1,-2 -0.636864,-1.91059 -3.925771,-0.64192 -5,-1 -0.316228,-0.10541 0.235702,-0.7643 0,-1 -0.235702,-0.2357 -0.666667,0 -1,0 -0.333333,0 -0.666667,0 -1,0 -0.450358,0 -2.695666,-0.15217 -3,0 -0.421637,0.21082 -0.578363,0.78918 -1,1 -0.298142,0.14907 -0.764298,-0.2357 -1,0 -0.235702,0.2357 0.235702,0.7643 0,1 -2.069036,2.06904 0.08088,-3.16176 -2,1 -0.149071,0.29814 0,0.66667 0,1 0,4.85092 -0.381123,2.74592 3,5 2.288304,1.52554 -0.625291,0.79157 3,2 0.316228,0.10541 0.764298,-0.2357 1,0 1.088099,1.0881 -1.774507,1.30637 1,2 0.970143,0.24254 2.051317,-0.31623 3,0 0.316228,0.10541 -0.298142,0.85093 0,1 0.8,0.4 2.2,-0.4 3,0 0.421637,0.21082 0.578363,0.78918 1,1 0.148666,0.0743 3.780419,0.0732 4,0 0.73079,-0.2436 2.542339,-1.08468 3,-2 0.149071,-0.29814 -0.149071,-0.70186 0,-1 0.421637,-0.84327 1.578363,-1.15673 2,-2 0.149071,-0.29814 -0.149071,-0.70186 0,-1 0.210819,-0.42164 0.789181,-0.57836 1,-1 0.298142,-0.59628 -0.471405,-1.52859 0,-2 0.235702,-0.2357 0.764298,0.2357 1,0 0.235702,-0.2357 -0.235702,-0.7643 0,-1 0.235702,-0.2357 0.764298,0.2357 1,0 0.235702,-0.2357 -0.149071,-0.70186 0,-1 0.210819,-0.42164 0.666667,-0.66667 1,-1 0.333333,-0.33333 0.578363,-0.78918 1,-1 0.298142,-0.14907 0.701858,0.14907 1,0 0.421637,-0.21082 0.578363,-0.78918 1,-1 0.596285,-0.29814 1.528595,0.47141 2,0 0.235702,-0.2357 -0.27735,-0.8151 0,-1 0.877058,-0.5847 2.0213,-0.60852 3,-1 0.692046,-0.27682 1.292893,-0.7643 2,-1 1.5,-0.5 1,1 3,0 0.298142,-0.14907 -0.235702,-0.7643 0,-1 0.268363,-0.26836 3.295714,0.23476 4,0 0.707107,-0.2357 1.292893,-0.7643 2,-1 0.316228,-0.10541 0.666667,0 1,0 0.666667,0 1.333333,0 2,0 0.333333,0 0.764298,-0.2357 1,0 0.235702,0.2357 -0.235702,0.7643 0,1 0.471405,0.47141 1.528595,-0.4714 2,0 0.235702,0.2357 -0.149071,0.70186 0,1 0.210819,0.42164 0.789181,0.57836 1,1 0.29814,0.59629 -0.471405,1.5286 0,2 0.2357,0.2357 0.7643,-0.2357 1,0 0.2357,0.2357 -0.14907,0.70186 0,1 0.21082,0.42164 0.78918,0.57836 1,1 0.14907,0.29814 0,0.66667 0,1 0,0.33333 0,0.66667 0,1 0,2 0,4 0,6 0,0.33333 0.2357,0.7643 0,1 -0.2357,0.2357 -0.7643,-0.2357 -1,0 -0.2357,0.2357 0.31623,1.10541 0,1 -10.756297,-3.58543 0.73826,-0.63087 -4,-3 -0.298142,-0.14907 -0.850929,0.29814 -1,0 -0.117576,-0.23515 0,-3.34308 0,-4 0,-0.33333 0,-0.66667 0,-1 0,-0.33333 -0.235702,-0.7643 0,-1 0.235702,-0.2357 0.764298,0.2357 1,0 0.235702,-0.2357 -0.149071,-0.70186 0,-1 0.210819,-0.42164 0.789181,-0.57836 1,-1 0.149071,-0.29814 -0.235702,-0.7643 0,-1 0.235702,-0.2357 0.764298,0.2357 1,0 0.235702,-0.2357 -0.149071,-0.70186 0,-1 0.210819,-0.42164 0.789181,-0.57836 1,-1 0.14907,-0.29814 -0.149071,-0.70186 0,-1 0.21082,-0.42164 0.78918,-0.57836 1,-1 0.14907,-0.29814 -0.2357,-0.7643 0,-1 0.2357,-0.2357 0.7643,0.2357 1,0 0.2357,-0.2357 -0.2357,-0.7643 0,-1 0.2357,-0.2357 0.66667,0 1,0 0.33333,0 0.66667,0 1,0 9.9665,0 1.11438,-0.94281 5,1 2.46295,1.23148 -0.90273,-2.90273 3,1 0.2357,0.2357 -0.2357,0.7643 0,1 0.2357,0.2357 0.66667,0 1,0 1,0 2.02986,-0.24254 3,0 0.45733,0.11433 0.55279,0.85093 1,1 0.63246,0.21082 1.36754,-0.21082 2,0 0.44721,0.14907 0.55279,0.85093 1,1 0.63246,0.21082 1.36754,-0.21082 2,0 0.44721,0.14907 0.55279,0.85093 1,1 1.26491,0.42164 2.73509,-0.42164 4,0 0.44721,0.14907 0.55279,0.85093 1,1 0.72365,0.24122 3.67036,-0.32964 4,0 0.2357,0.2357 -0.2357,0.7643 0,1 0.20444,0.20444 2.60351,-0.19825 3,0 0.42164,0.21082 0.57836,0.78918 1,1 0.36614,0.18307 6.59972,0 8,0 0.33333,0 0.66667,0 1,0 0.33333,0 0.7643,-0.2357 1,0 0.2357,0.2357 -0.2357,0.7643 0,1 0.2357,0.2357 0.66667,0 1,0 1.66667,0 3.33333,0 5,0 1,0 2.05132,0.31623 3,0 0.44721,-0.14907 0.55279,-0.85093 1,-1 0.63246,-0.21082 1.4453,0.3698 2,0 0.62017,-0.41345 0.47295,-1.47295 1,-2 0.52705,-0.52705 1.37983,-0.58655 2,-1 0.78446,-0.52298 1.21554,-1.47702 2,-2 0.62017,-0.41345 1.47295,-0.47295 2,-1 0.2357,-0.2357 -0.31623,-0.89459 0,-1 0.94868,-0.31623 2.05132,0.31623 3,0 0.31623,-0.10541 -0.29814,-0.85093 0,-1 0.59628,-0.29814 1.36754,0.21082 2,0 0.44721,-0.14907 0.66667,-0.66667 1,-1 0.33333,-0.33333 0.78918,-0.57836 1,-1 0.14907,-0.29814 -0.2357,-0.7643 0,-1 0.2357,-0.2357 1,0.33333 1,0 0,-1.37437 -2.62563,-1 -4,-1 -1,0 -2,0 -3,0 -0.73408,0 -5.65137,-0.17431 -6,0 -0.42164,0.21082 -0.57836,0.78918 -1,1 -0.29814,0.14907 -0.70186,-0.14907 -1,0 -0.42164,0.21082 -0.57836,0.78918 -1,1 -0.59628,0.29814 -1.5286,-0.4714 -2,0 -2.06904,2.06904 3.16176,-0.0809 -1,2 -0.29814,0.14907 -0.7643,-0.2357 -1,0 -0.0803,0.0803 0,4.21289 0,5 0,0.33333 0,0.66667 0,1 0,1.33333 0,2.66667 0,4 0,0.33333 -0.29814,0.85093 0,1 0.59628,0.29814 1.36754,-0.21082 2,0 0.44721,0.14907 0.55279,0.85093 1,1 0.94868,0.31623 2.05132,-0.31623 3,0 0.70711,0.2357 1.2769,0.81923 2,1 0.64676,0.16169 1.33333,0 2,0 1,0 2,0 3,0 0.66667,0 1.34628,-0.13074 2,0 1.03362,0.20673 1.96025,0.82671 3,1 1.64399,0.274 3.33333,0 5,0 2,0 4,0 6,0 0.66667,0 1.36754,0.21082 2,0 0.44721,-0.14907 0.57836,-0.78918 1,-1 0.94281,-0.4714 2.12294,-0.41529 3,-1 0.27735,-0.1849 -0.10541,-0.68377 0,-1 0.2357,-0.70711 0.47295,-1.47295 1,-2 0.52705,-0.52705 1.47295,-0.47295 2,-1 0.2357,-0.2357 -0.1849,-0.72265 0,-1 0.52298,-0.78446 1.43431,-1.24575 2,-2 0.44721,-0.59628 0.47295,-1.47295 1,-2 2.5259,-2.5259 1.15279,-0.38426 3,-1 0.70711,-0.2357 1.37983,-0.58655 2,-1 0.39223,-0.26149 0.55279,-0.85093 1,-1 0.63246,-0.21082 1.36754,0.21082 2,0 0.44721,-0.14907 0.55279,-0.85093 1,-1 1.36539,-0.45513 4.63461,0.45513 6,0 0.31623,-0.10541 -0.29814,-0.85093 0,-1 0.37618,-0.18809 5.85443,0.0364 6,0 4.94281,-1.2357 -2.09272,-1 2,-1 0.66667,0 1.33333,0 2,0 0.33333,0 0.7643,-0.2357 1,0 0.2357,0.2357 -0.14907,0.70186 0,1 2.08088,4.16176 -0.069,-1.06904 2,1 0.4714,0.47141 -0.29814,1.40372 0,2 0.21082,0.42164 0.78918,0.57836 1,1 0.14907,0.29814 0,0.66667 0,1 0,0.33333 0,0.66667 0,1 0,1.33333 0,2.66667 0,4 0,0.36724 0.0402,3.95976 0,4 -0.2357,0.2357 -0.66667,0 -1,0 -1,0 -2,0 -3,0 -0.55816,0 -4.54224,0.15259 -5,0 -0.44721,-0.14907 -0.85093,-0.55279 -1,-1 -0.0702,-0.21044 -0.13003,-4.47989 0,-5 1.07308,-4.29232 0.17218,-2.11479 3,-4 1.98106,0.0998 0.47295,-1.47295 1,-2 0.2357,-0.2357 0.70186,0.14907 1,0 0.42164,-0.21082 0.57836,-0.78918 1,-1 0.59628,-0.29814 1.5286,0.47141 2,0 0.2357,-0.2357 -0.2357,-0.7643 0,-1 0.2357,-0.2357 0.70186,0.14907 1,0 0.42164,-0.21082 0.57836,-0.78918 1,-1 0.29814,-0.14907 0.67662,0.0808 1,0 1.02262,-0.25565 2.05719,-0.52859 3,-1 0.42164,-0.21082 0.57836,-0.78918 1,-1 0.29814,-0.14907 0.70186,0.14907 1,0 0.42164,-0.21082 0.55279,-0.85093 1,-1 0.63246,-0.21082 1.33333,0 2,0 0.66667,0 1.33333,0 2,0 1,0 2.01942,-0.19612 3,0 0.73088,0.14618 1.30795,0.72318 2,1 9.18744,3.67497 -0.31246,-0.87497 4,2 0.62017,0.41345 1.40372,0.55279 2,1 0.75425,0.56569 1.33333,1.33333 2,2 0.33333,0.33333 0.57836,0.78918 1,1 0.94281,0.47141 2.25464,0.25464 3,1 0.4714,0.47141 -0.4714,1.5286 0,2 0.4714,0.47141 1.35324,-0.16169 2,0 0.7231,0.18078 1.33333,0.66667 2,1 1,0 2.01942,-0.19612 3,0 0.73088,0.14618 1.26912,0.85382 2,1 0.98058,0.19612 2.01361,-0.1644 3,0 1.03975,0.17329 1.9565,0.85093 3,1 1.31993,0.18856 2.70648,-0.32338 4,0 0.32338,0.0808 -0.29814,0.85093 0,1 2,1 1.5,-0.5 3,0 0.70711,0.2357 1.26912,0.85382 2,1 1.31268,0.26254 4.41011,0 6,0 0.66667,0 1.33333,0 2,0 0.33333,0 0.67662,0.0808 1,0 2.04524,-0.51131 3.95476,-1.48869 6,-2 2,-0.5 0,1 3,0 0.44721,-0.14907 0.57836,-0.78918 1,-1 0.94281,-0.4714 2.12294,-0.41529 3,-1 0.27735,-0.1849 -0.14907,-0.70186 0,-1 0.76579,-1.53158 1.78202,-0.78202 3,-2 0.2357,-0.2357 -0.14907,-0.70186 0,-1 0.21082,-0.42164 0.78918,-0.57836 1,-1 0.14907,-0.29814 -0.2357,-0.7643 0,-1 0.2357,-0.2357 1.31623,0.10541 1,0 -2.30217,-0.76739 -4.63108,-1.47357 -7,-2 -0.65079,-0.14462 -1.36754,0.21082 -2,0 -0.44721,-0.14907 -0.55279,-0.85093 -1,-1 -0.0657,-0.0219 -4.93433,-0.0219 -5,0 -0.44721,0.14907 -0.57836,0.78918 -1,1 -0.59628,0.29814 -1.40372,-0.29814 -2,0 -0.42164,0.21082 -0.60777,0.73851 -1,1 -0.62017,0.41345 -1.37983,0.58655 -2,1 -1.98106,-0.0998 -0.47295,1.47295 -1,2 -0.2357,0.2357 -0.7643,-0.2357 -1,0 -0.4714,0.47141 0.4714,1.5286 0,2 -0.2357,0.2357 -0.85093,-0.29814 -1,0 -0.44721,0.89443 0,2 0,3 0,0.45036 -0.15217,2.69567 0,3 1.10553,2.21106 0.62064,0.31032 2,1 3.04956,1.52478 -1.82894,0.79276 3,2 4,1 0.5,-0.5 3,0 3.13914,0.62783 4.14072,1.04691 7,2 10.35877,3.45292 -4.13523,-1.02705 6,1 0.73088,0.14618 1.29289,0.7643 2,1 1.5,0.5 1,-1 3,0 0.29814,0.14907 -0.31623,0.89459 0,1 0.94868,0.31623 2.03848,-0.27472 3,0 1.43336,0.40953 2.58579,1.5286 4,2 0.57299,0.191 4.06118,0 5,0 1.38388,0 6.96557,0.25861 8,0 8.32352,-2.08088 -1.20711,0.069 5,-2 0.31623,-0.10541 0.66667,0 1,0 0.66667,-0.33333 1.33333,-0.66667 2,-1 0.66667,-0.33333 1.37983,-0.58655 2,-1 0.39223,-0.26149 0.55279,-0.85093 1,-1 0.63246,-0.21082 1.36754,0.21082 2,0 0.44721,-0.14907 0.55279,-0.85093 1,-1 0.63246,-0.21082 1.5286,0.47141 2,0 2.86193,-2.86193 -2.49509,-1.25245 1,-3 0.52042,-2.33868 2.83002,-0.61001 4,-1 7.24342,-2.41447 -1.57661,0.2883 3,-2 2.42164,-1.21082 2.7117,-1 5,-1 0.33333,0 0.70186,-0.14907 1,0 0.42164,0.21082 0.60777,0.73851 1,1 0.62017,0.41345 1.47295,0.47295 2,1 0.4714,0.47141 -0.29814,1.40372 0,2 0.21082,0.42164 0.78918,0.57836 1,1 0.29814,0.59629 -0.29814,1.40372 0,2 0.21082,0.42164 0.78918,0.57836 1,1 0.0683,0.13657 0.0683,5.86343 0,6 -0.92986,1.85972 -3.50311,0.70062 -5,1 -0.73088,0.14618 -1.2769,0.81923 -2,1 -0.64676,0.16169 -1.33333,0 -2,0 -1,0 -2.01361,0.1644 -3,0 -2.46368,-0.41061 -4.79932,-1.89966 -7,-3 -1.33333,-0.66667 -2.75965,-1.1731 -4,-2 -0.78446,-0.52298 -1.15673,-1.57836 -2,-2 -0.29814,-0.14907 -0.70186,0.14907 -1,0 -4.16176,-2.08088 1.06904,0.069 -1,-2 -0.2357,-0.2357 -0.66667,0 -1,0 -0.33333,-0.66667 -0.7643,-1.29289 -1,-2 -0.1804,-0.54121 0,-3.65933 0,-4 0,-1.68074 -0.54505,-2.96996 1,-4 2.9845,-1.98966 0.90742,-0.38148 4,-1 1.03362,-0.20672 1.96025,-0.82671 3,-1 0.98639,-0.1644 2,0 3,0 3,0 6,0 9,0 0.76903,0 5.07495,0.23126 6,0 1.02262,-0.25565 1.97738,-0.74434 3,-1 0.85207,-0.21302 2.11834,0 3,0 1.05065,0 4.00765,-0.19847 5,0 1.03362,0.20673 1.96638,0.79328 3,1 0.98058,0.19612 2.05132,-0.31623 3,0 4.18376,-1.81085 1.15673,1.57836 2,2 0.59628,0.29814 1.36754,-0.21082 2,0 0.44721,0.14907 0.60777,0.73851 1,1 0.62017,0.41345 1.40372,0.55279 2,1 0.75425,0.56569 1.47702,1.21554 2,2 0.65286,0.97929 -1.15899,1.46025 1,2 0.97014,0.24254 2.16795,-0.5547 3,0 0.5547,0.3698 -0.4714,1.5286 0,2 0.4714,0.47141 1.40372,-0.29814 2,0 0.29814,0.14907 -0.2357,0.7643 0,1 0.2357,0.2357 0.68377,-0.10541 1,0 0.70711,0.2357 1.47295,0.47295 2,1 0.2357,0.2357 -0.2357,0.7643 0,1 0.4714,0.47141 1.40372,-0.29814 2,0 0.42164,0.21082 0.57836,0.78918 1,1 1.17259,0.58629 1.18689,-0.59344 2,-1 1.37936,-0.68968 0.89447,1.21106 2,-1 0.14907,-0.29814 -0.2357,-0.7643 0,-1 0.2357,-0.2357 0.7643,0.2357 1,0 0.2357,-0.2357 -0.29814,-0.85093 0,-1 2,-1 1.5,0.5 3,0 0.70711,-0.2357 1.29289,-0.7643 2,-1 0.31623,-0.10541 0.68377,0.10541 1,0 0.70711,-0.2357 1.29289,-0.7643 2,-1 0.31623,-0.10541 0.7643,0.2357 1,0 0.2357,-0.2357 -0.2357,-0.7643 0,-1 0.2357,-0.2357 0.7643,0.2357 1,0 0.2357,-0.2357 -0.10541,-0.68377 0,-1 0.2357,-0.70711 0.58655,-1.37983 1,-2 0.25435,-0.38152 1.69392,-1.13259 1,-2 -1.33333,-1.33333 -2.66667,-2.66667 -4,-4 -0.33333,0 -0.70186,0.14907 -1,0 -0.42164,-0.21082 -0.57836,-0.78918 -1,-1 -0.26294,-0.13147 -3.47708,0 -4,0 -0.24253,0 -2.96784,-0.0322 -3,0 -2.06904,2.06904 3.16176,-0.0809 -1,2 -0.29814,0.14907 -0.85093,-0.29814 -1,0 -1.27999,2.55997 -1,5.28912 -1,8 0,0.33333 0,0.66667 0,1 0,0.33333 -0.14907,0.70186 0,1 0.21082,0.42164 0.57836,0.78918 1,1 0.29814,0.14907 0.68377,-0.10541 1,0 0.70711,0.2357 1.30795,0.72318 2,1 0.9787,0.39148 2.05719,0.5286 3,1 0.42164,0.21082 0.55279,0.85093 1,1 0.63246,0.21082 1.35324,-0.16169 2,0 0.7231,0.18078 1.29289,0.7643 2,1 0.31623,0.10541 0.70186,-0.14907 1,0 1.07497,0.53748 1.88411,1.55364 3,2 0.61898,0.24759 1.33333,0 2,0 1,0 2,0 3,0 0.66667,0 1.33333,0 2,0 0.66667,0 1.36754,0.21082 2,0 0.44721,-0.14907 0.55279,-0.85093 1,-1 0.63246,-0.21082 1.36754,0.21082 2,0 0.44721,-0.14907 0.60777,-0.73851 1,-1 1.24035,-0.8269 2.75965,-1.1731 4,-2 0.78446,-0.52298 1.15673,-1.57836 2,-2 0.29814,-0.14907 0.66667,0 1,0 0.66667,0 1.35324,0.16169 2,0 0.7231,-0.18077 1.29289,-0.7643 2,-1 0.31623,-0.10541 0.68377,0.10541 1,0 1.41421,-0.4714 2.61591,-1.44636 4,-2 0.9787,-0.39148 2.0213,-0.60852 3,-1 0.66667,-0.33333 1.33333,-0.66667 2,-1 0.66667,0 1.36754,0.21082 2,0 0.44721,-0.14907 0.66667,-0.66667 1,-1 1,-0.33333 1.97738,-0.74434 3,-1 2,-0.5 0,1 3,0 0.44721,-0.14907 0.55279,-0.85093 1,-1 0.53761,-0.1792 3.15335,0 4,0 0.33333,0 0.7643,-0.2357 1,0 0.2357,0.2357 -0.2357,0.7643 0,1 0.2357,0.2357 0.7643,-0.2357 1,0 0.2357,0.2357 -0.2357,0.7643 0,1 0.2357,0.2357 0.7643,-0.2357 1,0 0.2357,0.2357 -0.14907,0.70186 0,1 0.21082,0.42164 0.78918,0.57836 1,1 0.14907,0.29814 -0.2357,0.7643 0,1 0.2357,0.2357 0.7643,-0.2357 1,0 0.2357,0.2357 0,0.66667 0,1 0,0.4715 0.0453,4.95468 0,5 -0.1,0.1 -2.9,0.1 -3,0 -0.52705,-0.52705 -0.47295,-1.47295 -1,-2 -0.2357,-0.2357 -0.68377,0.10541 -1,0 -0.70711,-0.2357 -1.47295,-0.47295 -2,-1 -0.2357,-0.2357 0,-0.66667 0,-1 0,-0.33333 0,-0.66667 0,-1 0,-1.66667 0,-3.33333 0,-5 0,-0.66667 0,-1.33333 0,-2 0,-0.33333 -0.14907,-0.70186 0,-1 2.08088,-4.16176 -0.069,1.06904 2,-1 0.2357,-0.2357 -0.2357,-0.7643 0,-1 0.4714,-0.4714 1.5286,0.47141 2,0 0.2357,-0.2357 -0.2357,-0.7643 0,-1 0.2357,-0.2357 0.66667,0 1,0 0.33333,0 0.66667,0 1,0 1.66667,0 3.33333,0 5,0 0.33333,0 0.66667,0 1,0 0.33333,0 0.70186,-0.14907 1,0 0.42164,0.21082 0.54267,0.88567 1,1 1.18812,0.29703 3.56436,0 5,0 0.33333,0 0.67662,-0.0808 1,0 1.02262,0.25566 1.97738,0.74435 3,1 0.64676,0.16169 1.33333,0 2,0 1.33333,0 2.66667,0 4,0"
       id="path3850"
       inkscape:connector-curvature="0" />
    <path
       style="opacity:0.18930042;fill:none;stroke:#000000;stroke-width:3.0999999;stroke-linecap:butt;stroke-linejoin:round;stroke-miterlimit:4;stroke-opacity:1;stroke-dasharray:none"
       d="m 22.53313,1017.3725 c 0,2.6667 0,5.3333 0,8 0,0.6667 0,1.3333 0,2 0,0.3333 -0.14907,0.7019 0,1 0.21082,0.4216 0.78918,0.5784 1,1 0.14907,0.2981 -0.14907,0.7019 0,1 0.21082,0.4216 0.66667,0.6667 1,1 0.33333,0.3333 0.57836,0.7892 1,1 0.29814,0.1491 0.7643,-0.2357 1,0 0.2357,0.2357 -0.2357,0.7643 0,1 0.4714,0.4714 1.52859,-0.4714 2,0 0.2357,0.2357 -0.2357,0.7643 0,1 0.2357,0.2357 0.66667,0 1,0 0.66667,0 1.33333,0 2,0 3,0 6,0 9,0 0.53421,0 4.7138,0.1431 5,0 4.57661,-2.2883 -4.24342,0.4145 3,-2 0.31623,-0.1054 0.70186,0.1491 1,0 0.42164,-0.2108 0.66667,-0.6667 1,-1 0.78109,-0.7811 2.1371,-2.4247 3,-3 0.62017,-0.4134 1.47295,-0.4729 2,-1 0.12122,-0.1212 -0.10264,-1.5894 0,-2 0.25565,-1.0226 0.74434,-1.9774 1,-3 0.0808,-0.3234 -0.2357,-0.7643 0,-1 0.95833,-0.9583 2.41667,2.25 1,-2 -0.63686,-1.9106 -3.92577,-0.6419 -5,-1 -0.31623,-0.1054 0.2357,-0.7643 0,-1 -0.2357,-0.2357 -0.66667,0 -1,0 -0.33333,0 -0.66667,0 -1,0 -0.45036,0 -2.69567,-0.1522 -3,0 -0.42164,0.2108 -0.57836,0.7892 -1,1 -0.29814,0.1491 -0.7643,-0.2357 -1,0 -0.2357,0.2357 0.2357,0.7643 0,1 -2.06904,2.069 0.0809,-3.1618 -2,1 -0.14907,0.2981 0,0.6667 0,1 0,4.8509 -0.38112,2.7459 3,5 2.2883,1.5255 -0.62529,0.7916 3,2 0.31623,0.1054 0.7643,-0.2357 1,0 1.0881,1.0881 -1.77451,1.3064 1,2 0.97014,0.2425 2.05132,-0.3162 3,0 0.31623,0.1054 -0.29814,0.8509 0,1 0.8,0.4 2.2,-0.4 3,0 0.42164,0.2108 0.57836,0.7892 1,1 0.14867,0.074 3.78042,0.073 4,0 0.73079,-0.2436 2.54234,-1.0847 3,-2 0.14907,-0.2981 -0.14907,-0.7019 0,-1 0.42164,-0.8433 1.57836,-1.1567 2,-2 0.14907,-0.2981 -0.14907,-0.7019 0,-1 0.21082,-0.4216 0.78918,-0.5784 1,-1 0.29814,-0.5963 -0.47141,-1.5286 0,-2 0.2357,-0.2357 0.7643,0.2357 1,0 0.2357,-0.2357 -0.2357,-0.7643 0,-1 0.2357,-0.2357 0.7643,0.2357 1,0 0.2357,-0.2357 -0.14907,-0.7019 0,-1 0.21082,-0.4216 0.66667,-0.6667 1,-1 0.33333,-0.3333 0.57836,-0.7892 1,-1 0.29814,-0.1491 0.70186,0.1491 1,0 0.42164,-0.2108 0.57836,-0.7892 1,-1 0.59628,-0.2981 1.52859,0.4714 2,0 0.2357,-0.2357 -0.27735,-0.8151 0,-1 0.87706,-0.5847 2.0213,-0.6085 3,-1 0.69205,-0.2768 1.29289,-0.7643 2,-1 1.5,-0.5 1,1 3,0 0.29814,-0.1491 -0.2357,-0.7643 0,-1 0.26836,-0.2684 3.29571,0.2348 4,0 0.70711,-0.2357 1.29289,-0.7643 2,-1 0.31623,-0.1054 0.66667,0 1,0 0.66667,0 1.33333,0 2,0 0.33333,0 0.7643,-0.2357 1,0 0.2357,0.2357 -0.2357,0.7643 0,1 0.4714,0.4714 1.52859,-0.4714 2,0 0.2357,0.2357 -0.14907,0.7019 0,1 0.21082,0.4216 0.78918,0.5784 1,1 0.29814,0.5963 -0.47141,1.5286 0,2 0.2357,0.2357 0.7643,-0.2357 1,0 0.2357,0.2357 -0.14907,0.7019 0,1 0.21082,0.4216 0.78918,0.5784 1,1 0.14907,0.2981 0,0.6667 0,1 0,0.3333 0,0.6667 0,1 0,2 0,4 0,6 0,0.3333 0.2357,0.7643 0,1 -0.2357,0.2357 -0.7643,-0.2357 -1,0 -0.2357,0.2357 0.31623,1.1054 0,1 -10.7563,-3.5854 0.73826,-0.6309 -4,-3 -0.29814,-0.1491 -0.85093,0.2981 -1,0 -0.11758,-0.2351 0,-3.3431 0,-4 0,-0.3333 0,-0.6667 0,-1 0,-0.3333 -0.2357,-0.7643 0,-1 0.2357,-0.2357 0.7643,0.2357 1,0 0.2357,-0.2357 -0.14907,-0.7019 0,-1 0.21082,-0.4216 0.78918,-0.5784 1,-1 0.14907,-0.2981 -0.2357,-0.7643 0,-1 0.2357,-0.2357 0.7643,0.2357 1,0 0.2357,-0.2357 -0.14907,-0.7019 0,-1 0.21082,-0.4216 0.78918,-0.5784 1,-1 0.14907,-0.2981 -0.14907,-0.7019 0,-1 0.21082,-0.4216 0.78918,-0.5784 1,-1 0.14907,-0.2981 -0.2357,-0.7643 0,-1 0.2357,-0.2357 0.7643,0.2357 1,0 0.2357,-0.2357 -0.2357,-0.7643 0,-1 0.2357,-0.2357 0.66667,0 1,0 0.33333,0 0.66667,0 1,0 9.9665,0 1.11438,-0.9428 5,1 2.46295,1.2315 -0.90273,-2.9027 3,1 0.2357,0.2357 -0.2357,0.7643 0,1 0.2357,0.2357 0.66667,0 1,0 1,0 2.02986,-0.2425 3,0 0.45733,0.1143 0.55279,0.8509 1,1 0.63246,0.2108 1.36754,-0.2108 2,0 0.44721,0.1491 0.55279,0.8509 1,1 0.63246,0.2108 1.36754,-0.2108 2,0 0.44721,0.1491 0.55279,0.8509 1,1 1.26491,0.4216 2.73509,-0.4216 4,0 0.44721,0.1491 0.55279,0.8509 1,1 0.72365,0.2412 3.67036,-0.3296 4,0 0.2357,0.2357 -0.2357,0.7643 0,1 0.20444,0.2044 2.60351,-0.1983 3,0 0.42164,0.2108 0.57836,0.7892 1,1 0.36614,0.1831 6.59972,0 8,0 0.33333,0 0.66667,0 1,0 0.33333,0 0.7643,-0.2357 1,0 0.2357,0.2357 -0.2357,0.7643 0,1 0.2357,0.2357 0.66667,0 1,0 1.66667,0 3.33333,0 5,0 1,0 2.05132,0.3162 3,0 0.44721,-0.1491 0.55279,-0.8509 1,-1 0.63246,-0.2108 1.4453,0.3698 2,0 0.62017,-0.4135 0.47295,-1.473 1,-2 0.52705,-0.5271 1.37983,-0.5866 2,-1 0.78446,-0.523 1.21554,-1.477 2,-2 0.62017,-0.4135 1.47295,-0.473 2,-1 0.2357,-0.2357 -0.31623,-0.8946 0,-1 0.94868,-0.3162 2.05132,0.3162 3,0 0.31623,-0.1054 -0.29814,-0.8509 0,-1 0.59628,-0.2981 1.36754,0.2108 2,0 0.44721,-0.1491 0.66667,-0.6667 1,-1 0.33333,-0.3333 0.78918,-0.5784 1,-1 0.14907,-0.2981 -0.2357,-0.7643 0,-1 0.2357,-0.2357 1,0.3333 1,0 0,-1.3744 -2.62563,-1 -4,-1 -1,0 -2,0 -3,0 -0.73408,0 -5.65137,-0.1743 -6,0 -0.42164,0.2108 -0.57836,0.7892 -1,1 -0.29814,0.1491 -0.70186,-0.1491 -1,0 -0.42164,0.2108 -0.57836,0.7892 -1,1 -0.59628,0.2981 -1.5286,-0.4714 -2,0 -2.06904,2.069 3.16176,-0.081 -1,2 -0.29814,0.1491 -0.7643,-0.2357 -1,0 -0.0803,0.08 0,4.2129 0,5 0,0.3333 0,0.6667 0,1 0,1.3333 0,2.6667 0,4 0,0.3333 -0.29814,0.8509 0,1 0.59628,0.2981 1.36754,-0.2108 2,0 0.44721,0.1491 0.55279,0.8509 1,1 0.94868,0.3162 2.05132,-0.3162 3,0 0.70711,0.2357 1.2769,0.8192 2,1 0.64676,0.1617 1.33333,0 2,0 1,0 2,0 3,0 0.66667,0 1.34628,-0.1307 2,0 1.03362,0.2067 1.96025,0.8267 3,1 1.64399,0.274 3.33333,0 5,0 2,0 4,0 6,0 0.66667,0 1.36754,0.2108 2,0 0.44721,-0.1491 0.57836,-0.7892 1,-1 0.94281,-0.4714 2.12294,-0.4153 3,-1 0.27735,-0.1849 -0.10541,-0.6838 0,-1 0.2357,-0.7071 0.47295,-1.473 1,-2 0.52705,-0.5271 1.47295,-0.473 2,-1 0.2357,-0.2357 -0.1849,-0.7227 0,-1 0.52298,-0.7845 1.43431,-1.2458 2,-2 0.44721,-0.5963 0.47295,-1.473 1,-2 2.5259,-2.5259 1.15279,-0.3843 3,-1 0.70711,-0.2357 1.37983,-0.5866 2,-1 0.39223,-0.2615 0.55279,-0.8509 1,-1 0.63246,-0.2108 1.36754,0.2108 2,0 0.44721,-0.1491 0.55279,-0.8509 1,-1 1.36539,-0.4551 4.63461,0.4551 6,0 0.31623,-0.1054 -0.29814,-0.8509 0,-1 0.37618,-0.1881 5.85443,0.036 6,0 4.94281,-1.2357 -2.09272,-1 2,-1 0.66667,0 1.33333,0 2,0 0.33333,0 0.7643,-0.2357 1,0 0.2357,0.2357 -0.14907,0.7019 0,1 2.08088,4.1618 -0.069,-1.069 2,1 0.4714,0.4714 -0.29814,1.4037 0,2 0.21082,0.4216 0.78918,0.5784 1,1 0.14907,0.2981 0,0.6667 0,1 0,0.3333 0,0.6667 0,1 0,1.3333 0,2.6667 0,4 0,0.3672 0.0402,3.9598 0,4 -0.2357,0.2357 -0.66667,0 -1,0 -1,0 -2,0 -3,0 -0.55816,0 -4.54224,0.1526 -5,0 -0.44721,-0.1491 -0.85093,-0.5528 -1,-1 -0.0702,-0.2104 -0.13003,-4.4799 0,-5 1.07308,-4.2923 0.17218,-2.1148 3,-4 1.98106,0.1 0.47295,-1.473 1,-2 0.2357,-0.2357 0.70186,0.1491 1,0 0.42164,-0.2108 0.57836,-0.7892 1,-1 0.59628,-0.2981 1.5286,0.4714 2,0 0.2357,-0.2357 -0.2357,-0.7643 0,-1 0.2357,-0.2357 0.70186,0.1491 1,0 0.42164,-0.2108 0.57836,-0.7892 1,-1 0.29814,-0.1491 0.67662,0.081 1,0 1.02262,-0.2557 2.05719,-0.5286 3,-1 0.42164,-0.2108 0.57836,-0.7892 1,-1 0.29814,-0.1491 0.70186,0.1491 1,0 0.42164,-0.2108 0.55279,-0.8509 1,-1 0.63246,-0.2108 1.33333,0 2,0 0.66667,0 1.33333,0 2,0 1,0 2.01942,-0.1961 3,0 0.73088,0.1462 1.30795,0.7232 2,1 9.18744,3.675 -0.31246,-0.875 4,2 0.62017,0.4134 1.40372,0.5528 2,1 0.75425,0.5657 1.33333,1.3333 2,2 0.33333,0.3333 0.57836,0.7892 1,1 0.94281,0.4714 2.25464,0.2546 3,1 0.4714,0.4714 -0.4714,1.5286 0,2 0.4714,0.4714 1.35324,-0.1617 2,0 0.7231,0.1808 1.33333,0.6667 2,1 1,0 2.01942,-0.1961 3,0 0.73088,0.1462 1.26912,0.8538 2,1 0.98058,0.1961 2.01361,-0.1644 3,0 1.03975,0.1733 1.9565,0.8509 3,1 1.31993,0.1886 2.70648,-0.3234 4,0 0.32338,0.081 -0.29814,0.8509 0,1 2,1 1.5,-0.5 3,0 0.70711,0.2357 1.26912,0.8538 2,1 1.31268,0.2625 4.41011,0 6,0 0.66667,0 1.33333,0 2,0 0.33333,0 0.67662,0.081 1,0 2.04524,-0.5113 3.95476,-1.4887 6,-2 2,-0.5 0,1 3,0 0.44721,-0.1491 0.57836,-0.7892 1,-1 0.94281,-0.4714 2.12294,-0.4153 3,-1 0.27735,-0.1849 -0.14907,-0.7019 0,-1 0.76579,-1.5316 1.78202,-0.782 3,-2 0.2357,-0.2357 -0.14907,-0.7019 0,-1 0.21082,-0.4216 0.78918,-0.5784 1,-1 0.14907,-0.2981 -0.2357,-0.7643 0,-1 0.2357,-0.2357 1.31623,0.1054 1,0 -2.30217,-0.7674 -4.63108,-1.4736 -7,-2 -0.65079,-0.1446 -1.36754,0.2108 -2,0 -0.44721,-0.1491 -0.55279,-0.8509 -1,-1 -0.0657,-0.022 -4.93433,-0.022 -5,0 -0.44721,0.1491 -0.57836,0.7892 -1,1 -0.59628,0.2981 -1.40372,-0.2981 -2,0 -0.42164,0.2108 -0.60777,0.7385 -1,1 -0.62017,0.4134 -1.37983,0.5865 -2,1 -1.98106,-0.1 -0.47295,1.4729 -1,2 -0.2357,0.2357 -0.7643,-0.2357 -1,0 -0.4714,0.4714 0.4714,1.5286 0,2 -0.2357,0.2357 -0.85093,-0.2981 -1,0 -0.44721,0.8944 0,2 0,3 0,0.4504 -0.15217,2.6957 0,3 1.10553,2.2111 0.62064,0.3103 2,1 3.04956,1.5248 -1.82894,0.7928 3,2 4,1 0.5,-0.5 3,0 3.13914,0.6278 4.14072,1.0469 7,2 10.35877,3.4529 -4.13523,-1.0271 6,1 0.73088,0.1462 1.29289,0.7643 2,1 1.5,0.5 1,-1 3,0 0.29814,0.1491 -0.31623,0.8946 0,1 0.94868,0.3162 2.03848,-0.2747 3,0 1.43336,0.4095 2.58579,1.5286 4,2 0.57299,0.191 4.06118,0 5,0 1.38388,0 6.96557,0.2586 8,0 8.32352,-2.0809 -1.20711,0.069 5,-2 0.31623,-0.1054 0.66667,0 1,0 0.66667,-0.3333 1.33333,-0.6667 2,-1 0.66667,-0.3333 1.37983,-0.5865 2,-1 0.39223,-0.2615 0.55279,-0.8509 1,-1 0.63246,-0.2108 1.36754,0.2108 2,0 0.44721,-0.1491 0.55279,-0.8509 1,-1 0.63246,-0.2108 1.5286,0.4714 2,0 2.86193,-2.8619 -2.49509,-1.2524 1,-3 0.52042,-2.3387 2.83002,-0.61 4,-1 7.24342,-2.4145 -1.57661,0.2883 3,-2 2.42164,-1.2108 2.7117,-1 5,-1 0.33333,0 0.70186,-0.1491 1,0 0.42164,0.2108 0.60777,0.7385 1,1 0.62017,0.4134 1.47295,0.4729 2,1 0.4714,0.4714 -0.29814,1.4037 0,2 0.21082,0.4216 0.78918,0.5784 1,1 0.29814,0.5963 -0.29814,1.4037 0,2 0.21082,0.4216 0.78918,0.5784 1,1 0.0683,0.1366 0.0683,5.8634 0,6 -0.92986,1.8597 -3.50311,0.7006 -5,1 -0.73088,0.1462 -1.2769,0.8192 -2,1 -0.64676,0.1617 -1.33333,0 -2,0 -1,0 -2.01361,0.1644 -3,0 -2.46368,-0.4106 -4.79932,-1.8997 -7,-3 -1.33333,-0.6667 -2.75965,-1.1731 -4,-2 -0.78446,-0.523 -1.15673,-1.5784 -2,-2 -0.29814,-0.1491 -0.70186,0.1491 -1,0 -4.16176,-2.0809 1.06904,0.069 -1,-2 -0.2357,-0.2357 -0.66667,0 -1,0 -0.33333,-0.6667 -0.7643,-1.2929 -1,-2 -0.1804,-0.5412 0,-3.6593 0,-4 0,-1.6807 -0.54505,-2.97 1,-4 2.9845,-1.9897 0.90742,-0.3815 4,-1 1.03362,-0.2067 1.96025,-0.8267 3,-1 0.98639,-0.1644 2,0 3,0 3,0 6,0 9,0 0.76903,0 5.07495,0.2313 6,0 1.02262,-0.2557 1.97738,-0.7443 3,-1 0.85207,-0.213 2.11834,0 3,0 1.05065,0 4.00765,-0.1985 5,0 1.03362,0.2067 1.96638,0.7933 3,1 0.98058,0.1961 2.05132,-0.3162 3,0 4.18376,-1.8109 1.15673,1.5784 2,2 0.59628,0.2981 1.36754,-0.2108 2,0 0.44721,0.1491 0.60777,0.7385 1,1 0.62017,0.4134 1.40372,0.5528 2,1 0.75425,0.5657 1.47702,1.2155 2,2 0.65286,0.9793 -1.15899,1.4602 1,2 0.97014,0.2425 2.16795,-0.5547 3,0 0.5547,0.3698 -0.4714,1.5286 0,2 0.4714,0.4714 1.40372,-0.2981 2,0 0.29814,0.1491 -0.2357,0.7643 0,1 0.2357,0.2357 0.68377,-0.1054 1,0 0.70711,0.2357 1.47295,0.4729 2,1 0.2357,0.2357 -0.2357,0.7643 0,1 0.4714,0.4714 1.40372,-0.2981 2,0 0.42164,0.2108 0.57836,0.7892 1,1 1.17259,0.5863 1.18689,-0.5934 2,-1 1.37936,-0.6897 0.89447,1.2111 2,-1 0.14907,-0.2981 -0.2357,-0.7643 0,-1 0.2357,-0.2357 0.7643,0.2357 1,0 0.2357,-0.2357 -0.29814,-0.8509 0,-1 2,-1 1.5,0.5 3,0 0.70711,-0.2357 1.29289,-0.7643 2,-1 0.31623,-0.1054 0.68377,0.1054 1,0 0.70711,-0.2357 1.29289,-0.7643 2,-1 0.31623,-0.1054 0.7643,0.2357 1,0 0.2357,-0.2357 -0.2357,-0.7643 0,-1 0.2357,-0.2357 0.7643,0.2357 1,0 0.2357,-0.2357 -0.10541,-0.6838 0,-1 0.2357,-0.7071 0.58655,-1.3798 1,-2 0.25435,-0.3815 1.69392,-1.1326 1,-2 -1.33333,-1.3333 -2.66667,-2.6667 -4,-4 -0.33333,0 -0.70186,0.1491 -1,0 -0.42164,-0.2108 -0.57836,-0.7892 -1,-1 -0.26294,-0.1315 -3.47708,0 -4,0 -0.24253,0 -2.96784,-0.032 -3,0 -2.06904,2.069 3.16176,-0.081 -1,2 -0.29814,0.1491 -0.85093,-0.2981 -1,0 -1.27999,2.56 -1,5.2891 -1,8 0,0.3333 0,0.6667 0,1 0,0.3333 -0.14907,0.7019 0,1 0.21082,0.4216 0.57836,0.7892 1,1 0.29814,0.1491 0.68377,-0.1054 1,0 0.70711,0.2357 1.30795,0.7232 2,1 0.9787,0.3915 2.05719,0.5286 3,1 0.42164,0.2108 0.55279,0.8509 1,1 0.63246,0.2108 1.35324,-0.1617 2,0 0.7231,0.1808 1.29289,0.7643 2,1 0.31623,0.1054 0.70186,-0.1491 1,0 1.07497,0.5375 1.88411,1.5536 3,2 0.61898,0.2476 1.33333,0 2,0 1,0 2,0 3,0 0.66667,0 1.33333,0 2,0 0.66667,0 1.36754,0.2108 2,0 0.44721,-0.1491 0.55279,-0.8509 1,-1 0.63246,-0.2108 1.36754,0.2108 2,0 0.44721,-0.1491 0.60777,-0.7385 1,-1 1.24035,-0.8269 2.75965,-1.1731 4,-2 0.78446,-0.523 1.15673,-1.5784 2,-2 0.29814,-0.1491 0.66667,0 1,0 0.66667,0 1.35324,0.1617 2,0 0.7231,-0.1808 1.29289,-0.7643 2,-1 0.31623,-0.1054 0.68377,0.1054 1,0 1.41421,-0.4714 2.61591,-1.4464 4,-2 0.9787,-0.3915 2.0213,-0.6085 3,-1 0.66667,-0.3333 1.33333,-0.6667 2,-1 0.66667,0 1.36754,0.2108 2,0 0.44721,-0.1491 0.66667,-0.6667 1,-1 1,-0.3333 1.97738,-0.7443 3,-1 2,-0.5 0,1 3,0 0.44721,-0.1491 0.55279,-0.8509 1,-1 0.53761,-0.1792 3.15335,0 4,0 0.33333,0 0.7643,-0.2357 1,0 0.2357,0.2357 -0.2357,0.7643 0,1 0.2357,0.2357 0.7643,-0.2357 1,0 0.2357,0.2357 -0.2357,0.7643 0,1 0.2357,0.2357 0.7643,-0.2357 1,0 0.2357,0.2357 -0.14907,0.7019 0,1 0.21082,0.4216 0.78918,0.5784 1,1 0.14907,0.2981 -0.2357,0.7643 0,1 0.2357,0.2357 0.7643,-0.2357 1,0 0.2357,0.2357 0,0.6667 0,1 0,0.4715 0.0453,4.9547 0,5 -0.1,0.1 -2.9,0.1 -3,0 -0.52705,-0.5271 -0.47295,-1.4729 -1,-2 -0.2357,-0.2357 -0.68377,0.1054 -1,0 -0.70711,-0.2357 -1.47295,-0.4729 -2,-1 -0.2357,-0.2357 0,-0.6667 0,-1 0,-0.3333 0,-0.6667 0,-1 0,-1.6667 0,-3.3333 0,-5 0,-0.6667 0,-1.3333 0,-2 0,-0.3333 -0.14907,-0.7019 0,-1 2.08088,-4.1618 -0.069,1.069 2,-1 0.2357,-0.2357 -0.2357,-0.7643 0,-1 0.4714,-0.4714 1.5286,0.4714 2,0 0.2357,-0.2357 -0.2357,-0.7643 0,-1 0.2357,-0.2357 0.66667,0 1,0 0.33333,0 0.66667,0 1,0 1.66667,0 3.33333,0 5,0 0.33333,0 0.66667,0 1,0 0.33333,0 0.70186,-0.1491 1,0 0.42164,0.2108 0.54267,0.8857 1,1 1.18812,0.297 3.56436,0 5,0 0.33333,0 0.67662,-0.081 1,0 1.02262,0.2557 1.97738,0.7443 3,1 0.64676,0.1617 1.33333,0 2,0 1.33333,0 2.66667,0 4,0"
       id="path3850-8"
       inkscape:connector-curvature="0" />
    <text
       xml:space="preserve"
       style="font-size:24px;font-style:normal;font-variant:normal;font-weight:bold;font-stretch:normal;text-align:center;line-height:125%;letter-spacing:0px;word-spacing:0px;text-anchor:middle;fill:#000000;fill-opacity:1;stroke:none;font-family:Arial;-inkscape-font-specification:Arial Bold"
       x="18.213106"
       y="826.28577"
       id="text5524"
       sodipodi:linespacing="125%"><tspan
         sodipodi:role="line"
         x="18.213106"
         y="826.28577"
         id="tspan5530"
         style="font-size:22px;font-weight:bold;text-align:start;text-anchor:start">Manage your health effortlessly</tspan></text>
    <text
       xml:space="preserve"
       style="font-size:24px;font-style:normal;font-variant:normal;font-weight:bold;font-stretch:normal;line-height:125%;letter-spacing:0px;word-spacing:0px;fill:#000000;fill-opacity:1;stroke:none;font-family:Arial;-inkscape-font-specification:Arial Bold"
       x="145"
       y="173"
       id="text5532"
       sodipodi:linespacing="125%"
       transform="translate(0,730.36218)"><tspan
         sodipodi:role="line"
         id="tspan5534"
         x="145"
         y="173" /></text>
    <text
       xml:space="preserve"
       style="font-size:24px;font-style:normal;font-variant:normal;font-weight:bold;font-stretch:normal;line-height:125%;letter-spacing:0px;word-spacing:0px;fill:#000000;fill-opacity:1;stroke:none;font-family:Arial;-inkscape-font-specification:Arial Bold"
       x="17.017395"
       y="858.86975"
       id="text5536"
       sodipodi:linespacing="125%"><tspan
         sodipodi:role="line"
         x="17.017395"
         y="858.86975"
         style="font-size:20px;font-weight:normal;-inkscape-font-specification:Arial Bold"
         id="tspan5540">Automatic analysis of your health</tspan><tspan
         sodipodi:role="line"
         x="17.017395"
         y="883.86975"
         style="font-size:20px;font-weight:normal;-inkscape-font-specification:Arial Bold"
         id="tspan5925">data to discover hidden patterns</tspan><tspan
         sodipodi:role="line"
         x="17.017395"
         y="908.86975"
         style="font-size:20px;font-weight:normal;-inkscape-font-specification:Arial Bold"
         id="tspan5933">and insights.</tspan><tspan
         sodipodi:role="line"
         x="17.017395"
         y="933.86975"
         style="font-size:20px;font-weight:normal;-inkscape-font-specification:Arial Bold"
         id="tspan5927" /><tspan
         sodipodi:role="line"
         x="17.017395"
         y="958.86975"
         style="font-size:20px;font-weight:normal;-inkscape-font-specification:Arial Bold"
         id="tspan5929">Obtain personalized recommendations</tspan><tspan
         sodipodi:role="line"
         x="17.017395"
         y="983.86975"
         style="font-size:20px;font-weight:normal;-inkscape-font-specification:Arial Bold"
         id="tspan5931">on how to lead a healthier lifestyle.</tspan></text>
    <g
       transform="matrix(0.44904632,0,0,0.44904632,438.40119,399.48165)"
       id="layer1-5"
       inkscape:label="Layer 1">
      <rect
         y="926.15765"
         x="-120.28714"
         height="225.13449"
         width="235.17688"
         id="rect3929"
         style="fill:#000000;fill-opacity:1;stroke:#000000;stroke-width:6.40899992;stroke-miterlimit:4;stroke-opacity:1;stroke-dasharray:none" />
      <g
         inkscape:export-ydpi="300"
         inkscape:export-xdpi="300"
         inkscape:export-filename="/media/KINGSTON/use4033.png"
         transform="matrix(2.2475464,0,0,2.2475464,-1194.4655,239.40773)"
         id="g3235">
        <g
           id="g3237"
           transform="matrix(0.450658,0,0,0.450658,464.57466,82.817794)">
          <g
             id="g3239"
             transform="translate(-90.71429,100)">
            <path
               style="fill:#000000;fill-opacity:1;fill-rule:evenodd;stroke:#ffffff;stroke-width:3.32846308;stroke-linecap:butt;stroke-linejoin:miter;stroke-miterlimit:4;stroke-opacity:1;stroke-dasharray:none"
               d="m 162.58404,552.29477 -13.7086,49.13183 180.98159,0 -13.99964,-50.17494 -153.27335,1.04311 z"
               id="path3241"
               inkscape:connector-curvature="0" />
            <rect
               style="fill:#ffffff;fill-opacity:1;stroke:none"
               id="rect3244"
               width="8.2515564"
               height="6.2138314"
               x="352.85782"
               y="623.92828"
               transform="matrix(1,0,-0.316705,0.948524,0,0)" />
            <rect
               transform="matrix(1,0,-0.215489,0.976506,0,0)"
               y="605.99036"
               x="296.45944"
               height="6.1536946"
               width="6.5749393"
               id="rect3246"
               style="fill:#ffffff;fill-opacity:1;stroke:none" />
            <rect
               transform="matrix(1,0,-0.187448,0.982275,0,0)"
               y="602.49036"
               x="287.9733"
               height="6.0003266"
               width="8.2515564"
               id="rect3248"
               style="fill:#ffffff;fill-opacity:1;stroke:none" />
            <path
               style="fill:#ffffff;fill-opacity:1;fill-rule:evenodd;stroke:none"
               d="m 184.60537,597.78837 1.74057,-6.14419 68.46504,0 1.00622,6.14533 -71.21183,-10e-4 z"
               id="path3250"
               sodipodi:nodetypes="ccccc"
               inkscape:connector-curvature="0" />
            <rect
               transform="matrix(-1,0,0.187448,0.982275,0,0)"
               y="602.49036"
               x="-181.96666"
               height="6.0003266"
               width="8.2515564"
               id="rect3252"
               style="fill:#ffffff;fill-opacity:1;stroke:none" />
            <rect
               style="fill:#ffffff;fill-opacity:1;stroke:none"
               id="rect3254"
               width="6.5749393"
               height="6.1536946"
               x="-153.78252"
               y="605.99036"
               transform="matrix(-1,0,0.215489,0.976506,0,0)" />
            <rect
               style="fill:#ffffff;fill-opacity:1;stroke:none"
               id="rect3256"
               width="8.2515564"
               height="6.0003266"
               x="-152.26868"
               y="602.49036"
               transform="matrix(-1,0,0.187448,0.982275,0,0)" />
            <rect
               transform="matrix(-1,0,0.187448,0.982275,0,0)"
               y="602.3869"
               x="-162.64215"
               height="6.0003266"
               width="8.2515564"
               id="rect3258"
               style="fill:#ffffff;fill-opacity:1;stroke:none" />
            <rect
               transform="matrix(-1,0,0.280476,0.959861,0,0)"
               y="616.49902"
               x="-131.5632"
               height="6.2604074"
               width="6.5749393"
               id="rect3260"
               style="fill:#ffffff;fill-opacity:1;stroke:none" />
            <rect
               style="fill:#ffffff;fill-opacity:1;stroke:none"
               id="rect3262"
               width="6.5749393"
               height="6.2604074"
               x="-140.65457"
               y="616.49902"
               transform="matrix(-1,0,0.280476,0.959861,0,0)" />
            <rect
               transform="matrix(-1,0,0.280476,0.959861,0,0)"
               y="616.49902"
               x="-149.74594"
               height="6.2604074"
               width="6.5749393"
               id="rect3264"
               style="fill:#ffffff;fill-opacity:1;stroke:none" />
            <rect
               style="fill:#ffffff;fill-opacity:1;stroke:none"
               id="rect3266"
               width="6.3756285"
               height="6.0630584"
               x="-140.2569"
               y="608.34277"
               transform="matrix(-1,0,0.280826,0.959759,0,0)" />
            <rect
               style="fill:#ffffff;fill-opacity:1;stroke:none"
               id="rect3268"
               width="4.9287982"
               height="4.6442871"
               x="-131.51305"
               y="594.73431"
               transform="matrix(-1,0,0.283418,0.958996,0,0)" />
            <rect
               transform="matrix(-1,0,0.283418,0.958996,0,0)"
               y="594.73431"
               x="-138.32825"
               height="4.6442871"
               width="4.9287982"
               id="rect3270"
               style="fill:#ffffff;fill-opacity:1;stroke:none" />
            <rect
               style="fill:#ffffff;fill-opacity:1;stroke:none"
               id="rect3272"
               width="4.9287982"
               height="4.6442871"
               x="-145.14345"
               y="594.73431"
               transform="matrix(-1,0,0.283418,0.958996,0,0)" />
            <rect
               transform="matrix(-1,0,0.284769,0.958596,0,0)"
               y="588.31213"
               x="-130.83644"
               height="4.4461594"
               width="4.7410131"
               id="rect3274"
               style="fill:#ffffff;fill-opacity:1;stroke:none" />
            <rect
               style="fill:#ffffff;fill-opacity:1;stroke:none"
               id="rect3276"
               width="4.7410131"
               height="4.4461594"
               x="-137.39198"
               y="588.31213"
               transform="matrix(-1,0,0.284769,0.958596,0,0)" />
            <rect
               transform="matrix(-1,0,0.284769,0.958596,0,0)"
               y="588.31213"
               x="-143.94753"
               height="4.4461594"
               width="4.7410131"
               id="rect3278"
               style="fill:#ffffff;fill-opacity:1;stroke:none" />
            <rect
               transform="matrix(1,0,-0.338603,0.940929,0,0)"
               y="620.91254"
               x="368.58023"
               height="5.7272015"
               width="20.318745"
               id="rect3280"
               style="fill:#ffffff;fill-opacity:1;stroke:none" />
            <rect
               style="fill:#ffffff;fill-opacity:1;stroke:none"
               id="rect3282"
               width="13.206918"
               height="5.6816258"
               x="353.19806"
               y="607.98376"
               transform="matrix(1,0,-0.316846,0.948477,0,0)" />
            <rect
               transform="matrix(1,0,-0.254914,0.966964,0,0)"
               y="589.05652"
               x="312.73019"
               height="5.0417323"
               width="9.4287605"
               id="rect3284"
               style="fill:#ffffff;fill-opacity:1;stroke:none" />
            <rect
               style="fill:#ffffff;fill-opacity:1;stroke:none"
               id="rect3286"
               width="5.8728466"
               height="5.0346656"
               x="305.20255"
               y="580.12183"
               transform="matrix(1,0,-0.242953,0.970038,0,0)" />
            <rect
               transform="matrix(1,0,-0.166283,0.986078,0,0)"
               y="562.75482"
               x="259.10629"
               height="4.1636868"
               width="4.9858637"
               id="rect3288"
               style="fill:#ffffff;fill-opacity:1;stroke:none" />
            <rect
               style="fill:#ffffff;fill-opacity:1;stroke:none"
               id="rect3290"
               width="4.9858637"
               height="4.1636868"
               x="273.24838"
               y="562.75482"
               transform="matrix(1,0,-0.166283,0.986078,0,0)" />
            <rect
               transform="matrix(1,0,-0.166283,0.986078,0,0)"
               y="562.75482"
               x="280.82452"
               height="4.1636868"
               width="4.9858637"
               id="rect3292"
               style="fill:#ffffff;fill-opacity:1;stroke:none" />
            <rect
               style="fill:#ffffff;fill-opacity:1;stroke:none"
               id="rect3294"
               width="4.9858637"
               height="4.1636868"
               x="288.6532"
               y="562.75482"
               transform="matrix(1,0,-0.166283,0.986078,0,0)" />
            <rect
               transform="matrix(1,0,-0.166283,0.986078,0,0)"
               y="562.75482"
               x="296.48187"
               height="4.1636868"
               width="4.9858637"
               id="rect3296"
               style="fill:#ffffff;fill-opacity:1;stroke:none" />
            <rect
               transform="matrix(1,0,-0.10399,0.994578,0,0)"
               y="558.10889"
               x="274.54718"
               height="4.1281009"
               width="4.9858637"
               id="rect3298"
               style="fill:#ffffff;fill-opacity:1;stroke:none" />
            <rect
               style="fill:#ffffff;fill-opacity:1;stroke:none"
               id="rect3300"
               width="4.9858637"
               height="4.1281009"
               x="282.12332"
               y="558.10889"
               transform="matrix(1,0,-0.10399,0.994578,0,0)" />
            <rect
               transform="matrix(1,0,-0.10399,0.994578,0,0)"
               y="558.10889"
               x="289.952"
               height="4.1281009"
               width="4.9858637"
               id="rect3302"
               style="fill:#ffffff;fill-opacity:1;stroke:none" />
            <rect
               style="fill:#ffffff;fill-opacity:1;stroke:none"
               id="rect3304"
               width="4.9858637"
               height="4.1281009"
               x="297.78064"
               y="558.10889"
               transform="matrix(1,0,-0.10399,0.994578,0,0)" />
            <rect
               style="fill:#ffffff;fill-opacity:1;stroke:none"
               id="rect3306"
               width="4.9858637"
               height="4.1516986"
               x="169.81055"
               y="561.18738"
               transform="matrix(1,0,0.148414,0.988925,0,0)" />
            <rect
               transform="matrix(1,0,0.148414,0.988925,0,0)"
               y="561.18738"
               x="177.38669"
               height="4.1516986"
               width="4.9858637"
               id="rect3308"
               style="fill:#ffffff;fill-opacity:1;stroke:none" />
            <rect
               style="fill:#ffffff;fill-opacity:1;stroke:none"
               id="rect3310"
               width="4.9858637"
               height="4.1516986"
               x="185.21536"
               y="561.18738"
               transform="matrix(1,0,0.148414,0.988925,0,0)" />
            <rect
               transform="matrix(1,0,0.148414,0.988925,0,0)"
               y="561.18738"
               x="193.04401"
               height="4.1516986"
               width="4.9858637"
               id="rect3312"
               style="fill:#ffffff;fill-opacity:1;stroke:none" />
            <rect
               style="fill:#ffffff;fill-opacity:1;stroke:none"
               id="rect3314"
               width="4.9858637"
               height="4.2096667"
               x="164.15715"
               y="569.50793"
               transform="matrix(1,0,0.220851,0.975308,0,0)" />
            <rect
               transform="matrix(1,0,0.220851,0.975308,0,0)"
               y="569.50793"
               x="171.48076"
               height="4.2096667"
               width="4.9858637"
               id="rect3316"
               style="fill:#ffffff;fill-opacity:1;stroke:none" />
            <rect
               style="fill:#ffffff;fill-opacity:1;stroke:none"
               id="rect3318"
               width="4.9858637"
               height="4.2096667"
               x="178.80434"
               y="569.50793"
               transform="matrix(1,0,0.220851,0.975308,0,0)" />
            <rect
               transform="matrix(1,0,-0.242953,0.970038,0,0)"
               y="580.12183"
               x="313.78882"
               height="5.0346656"
               width="5.8728466"
               id="rect3320"
               style="fill:#ffffff;fill-opacity:1;stroke:none" />
            <rect
               style="fill:#ffffff;fill-opacity:1;stroke:none"
               id="rect3322"
               width="5.8728466"
               height="4.9514384"
               x="275.1976"
               y="570.53192"
               transform="matrix(1,0,-0.164704,0.986343,0,0)" />
            <rect
               transform="matrix(1,0,-0.164704,0.986343,0,0)"
               y="570.53192"
               x="283.78391"
               height="4.9514384"
               width="5.8728466"
               id="rect3324"
               style="fill:#ffffff;fill-opacity:1;stroke:none" />
            <rect
               style="fill:#ffffff;fill-opacity:1;stroke:none"
               id="rect3326"
               width="5.8728466"
               height="4.9514384"
               x="292.37021"
               y="570.53192"
               transform="matrix(1,0,-0.164704,0.986343,0,0)" />
            <rect
               transform="matrix(1,0,-0.164704,0.986343,0,0)"
               y="570.53192"
               x="300.95651"
               height="4.9514389"
               width="5.8728466"
               id="rect3328"
               style="fill:#ffffff;fill-opacity:1;stroke:none" />
            <rect
               style="fill:#ffffff;fill-opacity:1;stroke:none"
               id="rect3330"
               width="5.8728466"
               height="4.9008183"
               x="262.3653"
               y="564.6991"
               transform="matrix(1,0,-0.08322153,0.996531,0,0)" />
            <rect
               transform="matrix(1,0,-3.810003e-5,1,0,0)"
               y="562.74023"
               x="223.52155"
               height="4.8838177"
               width="5.8728466"
               id="rect3332"
               style="fill:#ffffff;fill-opacity:1;stroke:none" />
            <rect
               style="fill:#ffffff;fill-opacity:1;stroke:none"
               id="rect3334"
               width="5.8728466"
               height="4.9007874"
               x="184.67778"
               y="564.69556"
               transform="matrix(1,0,0.08314612,0.996537,0,0)" />
            <rect
               transform="matrix(1,0,0.08314611,0.996537,0,0)"
               y="564.69556"
               x="193.01154"
               height="4.9007874"
               width="5.8728466"
               id="rect3336"
               style="fill:#ffffff;fill-opacity:1;stroke:none" />
            <rect
               style="fill:#ffffff;fill-opacity:1;stroke:none"
               id="rect3338"
               width="5.8728466"
               height="4.9007874"
               x="201.59784"
               y="564.69556"
               transform="matrix(1,0,0.0831461,0.996537,0,0)" />
            <rect
               transform="matrix(1,0,0.181379,0.983413,0,0)"
               y="572.23163"
               x="152.84656"
               height="4.9661903"
               width="5.8728466"
               id="rect3340"
               style="fill:#ffffff;fill-opacity:1;stroke:none" />
            <rect
               style="fill:#ffffff;fill-opacity:1;stroke:none"
               id="rect3342"
               width="5.8728466"
               height="4.9661903"
               x="161.43286"
               y="572.23163"
               transform="matrix(1,0,0.181379,0.983413,0,0)" />
            <rect
               transform="matrix(1,0,0.17164,0.98516,0,0)"
               y="571.21722"
               x="176.12506"
               height="4.957386"
               width="15.306321"
               id="rect3344"
               style="fill:#ffffff;fill-opacity:1;stroke:none" />
            <rect
               style="fill:#ffffff;fill-opacity:1;stroke:none"
               id="rect3346"
               width="11.478501"
               height="4.9253259"
               x="205.02338"
               y="574.65417"
               transform="matrix(1,0,0.129554,0.991572,0,0)" />
            <rect
               style="fill:#ffffff;fill-opacity:1;stroke:none"
               id="rect3348"
               width="17.698708"
               height="4.9819365"
               x="158.00261"
               y="588.21466"
               transform="matrix(1,0,0.19749,0.980305,0,0)" />
            <rect
               style="fill:#ffffff;fill-opacity:1;stroke:none"
               id="rect3350"
               width="22.452038"
               height="5.5120225"
               x="-167.85385"
               y="597.58405"
               transform="matrix(-1,0,0.210186,0.977661,0,0)" />
            <rect
               style="fill:#ffffff;fill-opacity:1;stroke:none"
               id="rect3352"
               width="6.0944853"
               height="5.2648549"
               x="316.12622"
               y="586.75488"
               transform="matrix(1,0,-0.241099,0.9705,0,0)" />
            <rect
               transform="matrix(1,0,-0.163405,0.986559,0,0)"
               y="577.2041"
               x="277.67688"
               height="5.1791577"
               width="6.0944853"
               id="rect3354"
               style="fill:#ffffff;fill-opacity:1;stroke:none" />
            <rect
               style="fill:#ffffff;fill-opacity:1;stroke:none"
               id="rect3356"
               width="6.0944853"
               height="5.1791577"
               x="286.58725"
               y="577.2041"
               transform="matrix(1,0,-0.163405,0.986559,0,0)" />
            <rect
               transform="matrix(1,0,-0.163405,0.986559,0,0)"
               y="577.2041"
               x="295.49759"
               height="5.1791577"
               width="6.0944853"
               id="rect3358"
               style="fill:#ffffff;fill-opacity:1;stroke:none" />
            <rect
               style="fill:#ffffff;fill-opacity:1;stroke:none"
               id="rect3360"
               width="6.0944853"
               height="5.1791582"
               x="304.40796"
               y="577.2041"
               transform="matrix(1,0,-0.163405,0.986559,0,0)" />
            <rect
               transform="matrix(1,0,-0.0825516,0.996587,0,0)"
               y="571.39624"
               x="265.95859"
               height="5.1270456"
               width="6.0944853"
               id="rect3362"
               style="fill:#ffffff;fill-opacity:1;stroke:none" />
            <rect
               style="fill:#ffffff;fill-opacity:1;stroke:none"
               id="rect3364"
               width="6.0944853"
               height="5.1095457"
               x="227.24721"
               y="569.44586"
               transform="matrix(1,0,-3.779122e-5,1,0,0)" />
            <rect
               transform="matrix(1,0,0.08247679,0.996593,0,0)"
               y="571.3927"
               x="188.53578"
               height="5.1270137"
               width="6.0944853"
               id="rect3366"
               style="fill:#ffffff;fill-opacity:1;stroke:none" />
            <rect
               style="fill:#ffffff;fill-opacity:1;stroke:none"
               id="rect3368"
               width="6.0944853"
               height="5.1270137"
               x="197.18407"
               y="571.3927"
               transform="matrix(1,0,0.08247678,0.996593,0,0)" />
            <rect
               transform="matrix(1,0,0.08247677,0.996593,0,0)"
               y="571.3927"
               x="206.09441"
               height="5.1270137"
               width="6.0944853"
               id="rect3370"
               style="fill:#ffffff;fill-opacity:1;stroke:none" />
            <rect
               style="fill:#ffffff;fill-opacity:1;stroke:none"
               id="rect3372"
               width="6.0944853"
               height="5.194345"
               x="157.43724"
               y="578.89655"
               transform="matrix(1,0,0.179956,0.983675,0,0)" />
            <rect
               transform="matrix(1,0,0.179956,0.983675,0,0)"
               y="578.89655"
               x="166.34758"
               height="5.194345"
               width="6.0944853"
               id="rect3374"
               style="fill:#ffffff;fill-opacity:1;stroke:none" />
            <rect
               transform="matrix(1,0,-0.241099,0.9705,0,0)"
               y="594.56128"
               x="322.04895"
               height="5.2648544"
               width="6.0944853"
               id="rect3376"
               style="fill:#ffffff;fill-opacity:1;stroke:none" />
            <rect
               style="fill:#ffffff;fill-opacity:1;stroke:none"
               id="rect3378"
               width="6.0944853"
               height="5.1791577"
               x="282.97232"
               y="584.88342"
               transform="matrix(1,0,-0.163405,0.986559,0,0)" />
            <rect
               transform="matrix(1,0,-0.163405,0.986559,0,0)"
               y="584.88342"
               x="291.88269"
               height="5.1791577"
               width="6.0944853"
               id="rect3380"
               style="fill:#ffffff;fill-opacity:1;stroke:none" />
            <rect
               style="fill:#ffffff;fill-opacity:1;stroke:none"
               id="rect3382"
               width="6.0944853"
               height="5.1791577"
               x="300.79303"
               y="584.88342"
               transform="matrix(1,0,-0.163405,0.986559,0,0)" />
            <rect
               transform="matrix(1,0,-0.163405,0.986559,0,0)"
               y="584.88342"
               x="309.7034"
               height="5.1791582"
               width="6.0944853"
               id="rect3384"
               style="fill:#ffffff;fill-opacity:1;stroke:none" />
            <rect
               style="fill:#ffffff;fill-opacity:1;stroke:none"
               id="rect3386"
               width="6.0944853"
               height="5.1270456"
               x="270.62677"
               y="578.99835"
               transform="matrix(1,0,-0.0825516,0.996587,0,0)" />
            <rect
               transform="matrix(1,0,-3.779122e-5,1,0,0)"
               y="577.02203"
               x="231.2881"
               height="5.1095457"
               width="6.0944853"
               id="rect3388"
               style="fill:#ffffff;fill-opacity:1;stroke:none" />
            <rect
               style="fill:#ffffff;fill-opacity:1;stroke:none"
               id="rect3390"
               width="6.0944853"
               height="5.1270137"
               x="191.9494"
               y="578.99475"
               transform="matrix(1,0,0.08247678,0.996593,0,0)" />
            <rect
               transform="matrix(1,0,0.08247678,0.996593,0,0)"
               y="578.99475"
               x="200.59769"
               height="5.1270137"
               width="6.0944853"
               id="rect3392"
               style="fill:#ffffff;fill-opacity:1;stroke:none" />
            <rect
               style="fill:#ffffff;fill-opacity:1;stroke:none"
               id="rect3394"
               width="6.0944853"
               height="5.1270137"
               x="209.50803"
               y="578.99475"
               transform="matrix(1,0,0.08247677,0.996593,0,0)" />
            <rect
               transform="matrix(1,0,0.179956,0.983675,0,0)"
               y="586.59845"
               x="160.09184"
               height="5.194345"
               width="6.0944853"
               id="rect3396"
               style="fill:#ffffff;fill-opacity:1;stroke:none" />
            <rect
               transform="matrix(1,0,-0.163405,0.986559,0,0)"
               y="592.30676"
               x="279.38712"
               height="5.1791577"
               width="6.0944853"
               id="rect3398"
               style="fill:#ffffff;fill-opacity:1;stroke:none" />
            <rect
               style="fill:#ffffff;fill-opacity:1;stroke:none"
               id="rect3400"
               width="6.0944853"
               height="5.1791577"
               x="288.29749"
               y="592.30676"
               transform="matrix(1,0,-0.163405,0.986559,0,0)" />
            <rect
               transform="matrix(1,0,-0.163405,0.986559,0,0)"
               y="592.30676"
               x="297.20782"
               height="5.1791577"
               width="6.0944853"
               id="rect3402"
               style="fill:#ffffff;fill-opacity:1;stroke:none" />
            <rect
               style="fill:#ffffff;fill-opacity:1;stroke:none"
               id="rect3404"
               width="6.0944853"
               height="5.1791582"
               x="306.11819"
               y="592.30676"
               transform="matrix(1,0,-0.163405,0.986559,0,0)" />
            <rect
               transform="matrix(1,0,-0.0825516,0.996587,0,0)"
               y="586.34705"
               x="266.43518"
               height="5.1270456"
               width="6.0944853"
               id="rect3406"
               style="fill:#ffffff;fill-opacity:1;stroke:none" />
            <rect
               style="fill:#ffffff;fill-opacity:1;stroke:none"
               id="rect3408"
               width="6.0944853"
               height="5.1095457"
               x="226.49016"
               y="584.34564"
               transform="matrix(1,0,-3.779122e-5,1,0,0)" />
            <rect
               transform="matrix(1,0,0.08247678,0.996593,0,0)"
               y="586.34338"
               x="186.54509"
               height="5.1270137"
               width="6.0944853"
               id="rect3410"
               style="fill:#ffffff;fill-opacity:1;stroke:none" />
            <rect
               style="fill:#ffffff;fill-opacity:1;stroke:none"
               id="rect3412"
               width="6.0944853"
               height="5.1270137"
               x="195.19337"
               y="586.34338"
               transform="matrix(1,0,0.08247678,0.996593,0,0)" />
            <rect
               transform="matrix(1,0,0.08247677,0.996593,0,0)"
               y="586.34338"
               x="204.10371"
               height="5.1270137"
               width="6.0944853"
               id="rect3414"
               style="fill:#ffffff;fill-opacity:1;stroke:none" />
            <rect
               style="fill:#ffffff;fill-opacity:1;stroke:none"
               id="rect3416"
               width="6.0944853"
               height="5.194345"
               x="153.95381"
               y="594.04358"
               transform="matrix(1,0,0.179956,0.983675,0,0)" />
          </g>
        </g>
        <g
           id="g3418"
           transform="translate(-37.375644,-102.02541)">
          <path
             inkscape:transform-center-y="0.7542"
             inkscape:transform-center-x="-52.022856"
             style="fill:none;stroke:#ffffff;stroke-width:1.5;stroke-linecap:butt;stroke-linejoin:miter;stroke-miterlimit:4;stroke-opacity:1;stroke-dasharray:none"
             d="m 599.63025,439.54071 18.93194,0.008"
             id="path3420"
             inkscape:connector-curvature="0" />
          <path
             id="path3422"
             d="m 597.98604,450.52969 18.28468,4.90806"
             style="fill:none;stroke:#ffffff;stroke-width:1.5;stroke-linecap:butt;stroke-linejoin:miter;stroke-miterlimit:4;stroke-opacity:1;stroke-dasharray:none"
             inkscape:transform-center-x="-52.022856"
             inkscape:transform-center-y="0.7542"
             inkscape:connector-curvature="0" />
          <path
             inkscape:transform-center-y="0.7542"
             inkscape:transform-center-x="-52.022856"
             style="fill:none;stroke:#ffffff;stroke-width:1.5;stroke-linecap:butt;stroke-linejoin:miter;stroke-miterlimit:4;stroke-opacity:1;stroke-dasharray:none"
             d="m 596.96487,461.6859 16.39135,9.47325"
             id="path3424"
             inkscape:connector-curvature="0" />
        </g>
        <g
           id="g3426"
           transform="translate(-37.375644,-102.02541)">
          <path
             id="path3428"
             d="m 536.75595,439.54071 -18.93194,0.008"
             style="fill:none;stroke:#ffffff;stroke-width:1.5;stroke-linecap:butt;stroke-linejoin:miter;stroke-miterlimit:4;stroke-opacity:1;stroke-dasharray:none"
             inkscape:transform-center-x="52.022856"
             inkscape:transform-center-y="0.7542"
             inkscape:connector-curvature="0" />
          <path
             inkscape:transform-center-y="0.7542"
             inkscape:transform-center-x="52.022856"
             style="fill:none;stroke:#ffffff;stroke-width:1.5;stroke-linecap:butt;stroke-linejoin:miter;stroke-miterlimit:4;stroke-opacity:1;stroke-dasharray:none"
             d="m 538.40016,450.52969 -18.28468,4.90806"
             id="path3430"
             inkscape:connector-curvature="0" />
          <path
             id="path3432"
             d="m 539.42133,461.6859 -16.39135,9.47325"
             style="fill:none;stroke:#ffffff;stroke-width:1.5;stroke-linecap:butt;stroke-linejoin:miter;stroke-miterlimit:4;stroke-opacity:1;stroke-dasharray:none"
             inkscape:transform-center-x="52.022856"
             inkscape:transform-center-y="0.7542"
             inkscape:connector-curvature="0" />
        </g>
        <g
           id="g3434"
           transform="matrix(0,1,-1,0,970.08336,-210.40091)">
          <path
             inkscape:transform-center-y="0.7542"
             inkscape:transform-center-x="52.022856"
             style="fill:none;stroke:#ffffff;stroke-width:1.5;stroke-linecap:butt;stroke-linejoin:miter;stroke-miterlimit:4;stroke-opacity:1;stroke-dasharray:none"
             d="m 536.75595,439.54071 -18.93194,0.008"
             id="path3436"
             inkscape:connector-curvature="0" />
          <path
             id="path3438"
             d="m 538.40016,450.52969 -16.76945,4.40298"
             style="fill:none;stroke:#ffffff;stroke-width:1.5;stroke-linecap:butt;stroke-linejoin:miter;stroke-miterlimit:4;stroke-opacity:1;stroke-dasharray:none"
             inkscape:transform-center-x="52.022856"
             inkscape:transform-center-y="0.7542"
             sodipodi:nodetypes="cc"
             inkscape:connector-curvature="0" />
          <path
             inkscape:transform-center-y="0.7542"
             inkscape:transform-center-x="52.022856"
             style="fill:none;stroke:#ffffff;stroke-width:1.5;stroke-linecap:butt;stroke-linejoin:miter;stroke-miterlimit:4;stroke-opacity:1;stroke-dasharray:none"
             d="m 539.42133,461.6859 -14.37104,8.4631"
             id="path3440"
             sodipodi:nodetypes="cc"
             inkscape:connector-curvature="0" />
        </g>
        <g
           transform="matrix(0,1,1,0,91.383456,-210.40091)"
           id="g3442">
          <path
             inkscape:transform-center-y="0.7542"
             inkscape:transform-center-x="52.022856"
             style="fill:none;stroke:#ffffff;stroke-width:1.5;stroke-linecap:butt;stroke-linejoin:miter;stroke-miterlimit:4;stroke-opacity:1;stroke-dasharray:none"
             d="m 538.40016,450.52969 -18.28468,4.90806"
             id="path3444"
             inkscape:connector-curvature="0" />
          <path
             id="path3446"
             d="m 539.42133,461.6859 -16.39135,9.47325"
             style="fill:none;stroke:#ffffff;stroke-width:1.5;stroke-linecap:butt;stroke-linejoin:miter;stroke-miterlimit:4;stroke-opacity:1;stroke-dasharray:none"
             inkscape:transform-center-x="52.022856"
             inkscape:transform-center-y="0.7542"
             inkscape:connector-curvature="0" />
        </g>
        <path
           id="path3448"
           d="M 503.94681,333.4398 487.8885,323.41238"
           style="fill:none;stroke:#ffffff;stroke-width:1.5;stroke-linecap:butt;stroke-linejoin:miter;stroke-miterlimit:4;stroke-opacity:1;stroke-dasharray:none"
           inkscape:transform-center-x="52.022856"
           inkscape:transform-center-y="0.7542"
           inkscape:connector-curvature="0" />
        <path
           inkscape:transform-center-y="0.7542"
           inkscape:transform-center-x="-52.022856"
           style="fill:none;stroke:#ffffff;stroke-width:1.5;stroke-linecap:butt;stroke-linejoin:miter;stroke-miterlimit:4;stroke-opacity:1;stroke-dasharray:none"
           d="m 557.8885,333.4398 16.05831,-10.02742"
           id="path3450"
           inkscape:connector-curvature="0" />
        <rect
           style="fill:#ffffff;fill-opacity:1;fill-rule:evenodd;stroke:#000000;stroke-width:2;stroke-miterlimit:4;stroke-opacity:1;stroke-dasharray:none;stroke-dashoffset:0"
           id="rect3452"
           width="64.649765"
           height="44.446712"
           x="498.49002"
           y="327.05231" />
      </g>
    </g>
  </g>
</svg>
